<mxfile host="app.diagrams.net" agent="Mozilla/5.0 (Windows NT 10.0; Win64; x64) AppleWebKit/537.36 (KHTML, like Gecko) Chrome/130.0.0.0 Safari/537.36 Edg/130.0.0.0" version="26.0.14">
  <diagram name="Page-1" id="XbPg99epXys-3YRKPuGv">
    <mxGraphModel dx="1730" dy="1580" grid="1" gridSize="10" guides="1" tooltips="1" connect="1" arrows="1" fold="1" page="1" pageScale="1" pageWidth="850" pageHeight="1100" math="0" shadow="0">
      <root>
        <mxCell id="0" />
        <mxCell id="1" parent="0" />
        <mxCell id="oFOPfkIDdDdgaN84WTpM-1" value="MQ35" style="rounded=0;whiteSpace=wrap;html=1;" vertex="1" parent="1">
          <mxGeometry y="80" width="80" height="30" as="geometry" />
        </mxCell>
        <mxCell id="oFOPfkIDdDdgaN84WTpM-2" value="Device to measure&lt;div&gt;concentration of gases&lt;/div&gt;" style="rounded=1;whiteSpace=wrap;html=1;" vertex="1" parent="1">
          <mxGeometry x="190" y="88" width="160" height="82" as="geometry" />
        </mxCell>
        <mxCell id="oFOPfkIDdDdgaN84WTpM-7" style="edgeStyle=orthogonalEdgeStyle;rounded=0;orthogonalLoop=1;jettySize=auto;html=1;exitX=0;exitY=1;exitDx=0;exitDy=0;" edge="1" parent="1" source="oFOPfkIDdDdgaN84WTpM-3">
          <mxGeometry relative="1" as="geometry">
            <mxPoint x="10" y="230" as="targetPoint" />
          </mxGeometry>
        </mxCell>
        <mxCell id="oFOPfkIDdDdgaN84WTpM-8" style="edgeStyle=orthogonalEdgeStyle;rounded=0;orthogonalLoop=1;jettySize=auto;html=1;exitX=0;exitY=0.5;exitDx=0;exitDy=0;" edge="1" parent="1" source="oFOPfkIDdDdgaN84WTpM-3">
          <mxGeometry relative="1" as="geometry">
            <mxPoint x="10" y="200" as="targetPoint" />
          </mxGeometry>
        </mxCell>
        <mxCell id="oFOPfkIDdDdgaN84WTpM-3" value="LM35 sensor" style="rounded=1;whiteSpace=wrap;html=1;" vertex="1" parent="1">
          <mxGeometry x="-10" y="170" width="100" height="32" as="geometry" />
        </mxCell>
        <mxCell id="oFOPfkIDdDdgaN84WTpM-5" value="alcohol,benzene&lt;div&gt;,smoke,NH3, CO2&lt;/div&gt;" style="text;html=1;align=center;verticalAlign=middle;resizable=0;points=[];autosize=1;strokeColor=none;fillColor=none;" vertex="1" parent="1">
          <mxGeometry x="-5" y="30" width="120" height="40" as="geometry" />
        </mxCell>
        <mxCell id="oFOPfkIDdDdgaN84WTpM-9" value="Temperature sensor" style="text;html=1;align=center;verticalAlign=middle;resizable=0;points=[];autosize=1;strokeColor=none;fillColor=none;" vertex="1" parent="1">
          <mxGeometry x="-15" y="198" width="130" height="30" as="geometry" />
        </mxCell>
        <mxCell id="oFOPfkIDdDdgaN84WTpM-10" value="Gas sensor" style="text;html=1;align=center;verticalAlign=middle;resizable=0;points=[];autosize=1;strokeColor=none;fillColor=none;" vertex="1" parent="1">
          <mxGeometry x="-5" y="103" width="80" height="30" as="geometry" />
        </mxCell>
        <mxCell id="oFOPfkIDdDdgaN84WTpM-11" value="" style="shape=image;verticalLabelPosition=bottom;labelBackgroundColor=default;verticalAlign=top;aspect=fixed;imageAspect=0;image=data:image/jpeg,/9j/4AAQSkZJRgABAQAAAQABAAD/2wBDAAsJCQcJCQcJCQkJCwkJCQkJCQsJCwsMCwsLDA0QDBEODQ4MEhkSJRodJR0ZHxwpKRYlNzU2GioyPi0pMBk7IRP/2wBDAQcICAsJCxULCxUsHRkdLCwsLCwsLCwsLCwsLCwsLCwsLCwsLCwsLCwsLCwsLCwsLCwsLCwsLCwsLCwsLCwsLCz/wAARCAC4ALgDASIAAhEBAxEB/8QAGwABAAEFAQAAAAAAAAAAAAAAAAECAwQFBgf/xAA7EAACAQMCAwYEBAQGAgMAAAABAgMABBEFIRIxQQYTIlFhcRSBkfAyQqGxI1LB0RUzQ2Jy4SSCc5Lx/8QAGQEBAAMBAQAAAAAAAAAAAAAAAAECAwQF/8QAJhEBAAICAgIBAwUBAAAAAAAAAAECAxESIQQxQRMicSMyUpGh8f/aAAwDAQACEQMRAD8A9bpSlApSlApSlApSlApSlApSlApSlApSlApSlApSlApSlApSlApSlApSlApSlApVuaaOCNpZDhV+pPkK5m81e5uSyxt3UWdlXOSP9x51Gx0kl1aRHEk8SnyLDP0FWf8AE9Mzj4lPo/74rj+Js7DAJwSaeI7nmTk9PWo2O1iu7ObaKeJj5Bxn6Her9cJy8s5+VZttqN7bHCuxjH5Gywx6A7+lTsddSsa0vIruMMpAb8yg8vWsmpClKUClKUClKUClKUClKUClKUClKUClKUHOa/c5kjtwdkUk4PN2FaEDA64G4x9ev3t61l38nf3E7E82Y5OMAeudsfe3MYfGRnIOPXORvnJH69f6mgvD0O5++v3vVWw67++T9/2qwHVsFfwnmM+IY36/MVOQMgHHXIx7ZP6GmxeOf5R0z+2/7fOoGDuSdh08iOf35VQDseI4HT+2fqPlVSMoOTzzuOZ68+n69akbKxmNuwcAjBGR054P9fpXUqQyqw5MAR7HeuFe4B4QOQ4dtt66/TpO9s7duoBQ/wDqakZlKUqQpSlApSlApSlApSlApSlApSlArDu7pYUdV3fgb2XpvWRPJ3UbN15L7mud1CZoksl63N4I5D6dxO6j5lRUTI1EjZeU8sEjJJGMddiP3HuOdYzYKjGckk9P0GPv97kj4MjepJPoOv2R7j81oHHXp+++1UGO8hUkA4JONzj25nP39XxJXK8WTz5g8/lVMwOWPLcgdOe58qsb4znJ98nHnu1Qlea4YDnlj64J9NiP2qkzsRuc+mMDfA2A/sasY4cnrjO/Q+v/AO1C44v04j8vPb761I2ETFu7JO4I2OOn35/9dtokim27st4uMsoPlgcq4SM4KjyIG+3v0+/TkOq0qQu4tx+P4d7lGHMNHIiY9jn9Ksh09KtwyCVFbryYeRq5VgpSlApSlApSlApSlApSlAql5EjR5JGVEQFnZiAqgbkkmqJ54LaKSeeRY4oxxO7nAA++Veadou0txqbNFDxxafG+ApBHeno0jcvYZrXHjnJPTLLljHHft08faGLVNSnsrYf+LDbtKjkYaaRZFQtvyUA7feJ1SA3FqoVgjgo0UhBIimiYSRuwHTIw3oTXAaTevZ6jbTqCwHEJgOsLY4/7j2r0lJYnRSSGikUMrDdWB3yDVfIpFLahGC83ruXJd4zhg6tHKj8M0b7tDKv5WI226HbIOxOeEVpgg59fvfFdJe6Fa6jHHLDN8PeIoWG4UcSSKOUcqZGcdNwR0ONjzl1a6npYIvrZ1RdviIMy255/nGGHzUfOufbdZlAIxg4AJJGw+u371jOD0bf0K4x8pP6ftV0SRzBu7dWywXKnl0G4H9ao/Ejtk+FUBBLcyDnmTyqRYYjkOfI+vvyqyhywJOwzk59OvL96qdgC+/Co3Odtj51aiZpmbuVLqu7OGVYx0yZnPAP/ALZqYGyThBJYqqqATkgY4RnPQACuy7PW0vdNeyqyd+ES1R1KuLZCWDsDuC5JOPIL8tFpGkQtLb3N+wl45Fe2t4wywSSAbHxgM+OecAe58R7WSQRKFG8r4CqOmdqkW4Hji7zjdFVpu7QuwXiYjIUZ61mV592x1BAbPTIm4ngdrm7KNymZeFUGdsgE59xWq0/tLrVhwpHcd9Ev+jcgtgeQ4jn6EV1U8e1qcocl/JrS3GXq1K5aw7Z6XccMd6j2sp5sQXhPrkeIfSulhnguEWSCWOWM8miYMv1FZWpanVob1yVv+2VylKVRcpSlApSlAqiWRYo3kbJCAnC4LH0A8zVdUSokiMjDwsMHHP3FBw02py6nqYivY2ggiEnwtvMQsffDAQyF8KSd9ztn9c2Xs/rUgV0mtVH4u67yQAZ32IQp+lbe60mOZOCREuIhyVwOMf8AH/o1yeqaJdFXSyu5owDj4Wd5AufJW/uDWs8Mkx8OKK3xzMzG9/20t9/hFpq78UiwwG1mFx8L4o47sKW4YinTIGcdTt6bvs5qcN1HcW8aySxRC3laIDxwi4j7wd3v9R06ZG1cTf2t3ZkC6geM5PD3gwrjkeFuWKytA+GEN3C7Dujc2E92uWRmgjuZTJxAHPAoeMnfkp8t9M2ONRMdr4L7mYnp6vZPAOIK5ZPzMoJI9JojuD64+lZVyLjuWa2lTBB2lDSREf8AJPGP19q5CGdLa7u7QvJNHBaR31q8LNcXCRGRoHtwyMXbhZfBuTg4/LV2DW1azkvvjpbS3V5opTfhEZGjlMBVwCdydgNzvXB6jTrYt4trxvJeaUzHJJmshb3I38nj4JfqK10Q7Lu7xJ8bHxcRdJpriJfMluOXFbB1F6Hnt7i0l8TK8kUskJV13IcEHBHXKisOOO/yT8essa8wt9BOoGeZKIprL7obRxZdrYaNOwjj0+VlXDd5cQqU4ejcUrMT6Vl6jYSR/DjTJNLjnKgC4vUDi2HLMSElc+WENa19Z02xPDdXKl8A8Co0kmD/AOpHtvWDN2p7PwlntrC7luDn+LMYkUnoAq5q9KXnuYRe1I9S6/S7O10pWvbu/lu76ccEmoag4Ubn/KtoySAPIDJ/YY2p9qLS3EkOnkzXzgqJWHhgzsWwfzeWfmByPm93rupXcpdnEXECh7tnMhU/lM0hL49AQPSr9tcQ28ZmkGQBiNBsZHxsi/18uddtMOu7OK+X4qvTszSnjcs+WeRnOSWJJZmPP3q0rK2A3JieDIB4ufTmPSrPE8mZJjlWPE/D/qyE5CKD+Uch7Zq6CzHifHERjA5IM/hX08/M16Vd6h50xG5leXiwMHI5gPuuPPPOsm0vr60ZZbWaaFunBIQG64xWKCG48kBE/wAwkjLt/KPv9qvQBJI5rhpY0EQQqj5BZeLBCEjHuflV5tGvuVis73V2Wm9rdRZhDdWpucY4nt1IlAPVgoK/tXVW2pWN1wqjskjDIiuFMUnyD7H5E1xfZ9LO6RIGvILaWNnYxum87O5PGGLAE4wMc9vLnvtQgt7S0lF1LA0RR+EqwV+PGVKoSd89RXl5YjnxiunfjtaKcptt0dK0HZyPU1gaS7nleN1TuYpTkovMEk75Pl0GOp239Z2rxnW9t8d+dYtrWylKVVoVFKigValihmXhlRXG+M8x7EbirlRQaW80dZg3dskikHMV0iyKTjABzsR7/WuRvOy8UEy3NiZLC8Qkp4e8tmJXxB4yeR3HhON69FNY8iBgQwBB5hgCD8qtFpj0rNYl55ZPBoU08t7p62q3McSTzWP8eyZkZirZA7xDucqRjrzG+fY8MdldzWnw2oub+9vYoradMPFPdGcKGIK8ag5APUYyOddDPYp4miJRjvtuM4xnBrmL3szpk8jyd09lckswvLB2hkHXxqvhOd9yKrNYk3MNfNbXkw7WlY9Zktr6ztx8RdWoGoPKq8EkEMJKhlUcjgcyMtjeuzCC4eGzY3WnDT0ea5k06O0eG6VwqQCRIYuLw5LAqcHrvWqurHtrZK0lnqd7eW6HDGJpO9jI34ZIpPHkdcVz82qdopSVnvrhypIIlZiQR0Iberxhm3qUTkiPbc9oTZ9+hjYFyg4sHPLatGzIqFiRvyzyOKxmF7MwZ5CzcskZOPnXR2snZ6PQ7myvLW9uL2aGWVy3dAfH54IXhmVgwjRQMgjffY5yN4pesREQz5Unc7aZbzSktZo3tppr19om7zghhOc8R4dyfSsmys7qdUurpJltlACs0UiI3FuI4uIAY6k9cem2Hb264eFsFuHjiK/qB+orrp9alurGCzkS0hgSWGSKCFXQxNGhVY4xI5IUZOwHU1t9O1ZhjbJWYntq2Tx5bYjIVOkY6j38zVYx1/bn06ffSoyc79eX77ffrV6GC4n71beMSPFCZ3UusY4AeHAZzjiO/COZxtXT6jcuLu06hctLaa6nnWKJpo47U3dyiFlJjjbBwyg/X+pAOdLf3Fu62jaZbx/D2TJZPdo7XUdpeRDCMVbhbAJAyNuuTkm3fvbpZ21vp2q96YGVIRbmRXmWVAZ3LLwlQTjYjfh9PDhl3d2eR2d3OXkdizv08TNk1zVj6tuU+nVefo11HtWg4QqryAAGf610XZzS5b65WeQE2sL5XiHhkdTzP+0fqfQVq9L06fUrgRIG7tWQTsmeLxcowR1PNj0G9eoWNnFZQRwoqghVDFAQvhGAFBOwHIf91OfLxjjHtTx8HOedvTJVVRQq8hVVU1IrznpppSlBT1NKdTSgg1BqTSgoIzVBWrtU4oMZkBrGmt1dXUjZlZSRzwRis8rVtkoOXTSr2Mv3t0swDHuuKI/w1IC4UluIH2brWFf6RYXu11aw58WZkXhkXC7FJFGRnrkGuwaMHpWO9up6damJmO4RNYl5hddm7qAyGzlWYjbuZisc5GAcRMPC3uMVpZUlibu5kaN+XBIvCT7dCPY10l7qN7aavrKwzHuo5rgCGQB4Th2GeBts+oxWSdY0m8+FttSt1jacEKOEyQFVQZUMMyJzBGx5V6vHNjrFpjcf64JjHedROpcgsSkgsDsTjzHsR99K3mmXlnZ/EPcC8edmijtprYx5it22mjcOyk8QGBvyJ5czmzdm1ePv9PnxHlcpKyzQ5PSOZDnbrkVqZ7W7tSPiYJIgdlc+KJjy8Mi+Hp+lOVM32sdZMU8o7Q5iae5ktoGht5Zna2t2fvGiQnIj4uZ+v962mn3XZ6OCCG+trv4mK5+JlnhfvVuSgI7oxkgKG2B2YY9qw7OG1kF3PclDb2Vr8U0cj8CTMZBGBIQQeBc5YAjmByNXIL3Q5rgQlNOKOR/lwLCOI7AJIAr+mzfWsc96x+nMT01wVvO8ka7YxWHvLh4oVt4pZWkSBHZkhU5IRWff3NZNrbT3c0cEA/iMrOzEZWKJcZlYDoOg+VX73TJLa8gt7ZZJhdIklohOZPGWHdu3LAwST5DPSt3Yy6Ros0VlqEEs3xcAe5u+Ai3Mjgr3ZVsMUA5YzjPny0vmrSkTX5Z0xTkvPL49up0CxsbS0jNs8ch4SONG4iAxye8P8zc229OQ33VctFpMYxc6BqAjXHF3DuZYSP8AZIp7xf1rKtdU1KCYW+rwLGHbEM67Rt18TjwftXlzMzO5epEa6hv6mqQQQCDkEAg+YNTRKqlRSgjzpU1FBBpU0xQU1FVVFBTUYqvFRigtsoq2VwQcZwQavkVSRQeVa72f1u31DVNRMffWs4nKm24n4O8laTMq/iB3xyx61oZXj+P0lM8op2GDnyH9K9weNWB2rQal2Y0u9ZpREIp+YlhAVs+ZGOE/SvUw+dqON4ceTxtzurzl7q7tJIGtLmaFy+S8TcORg7Mv4T8xW5h7RQxFodRtx3YWNXkgUHKDxeOJ/D9MGrWq9ltZheGSICeCFyzGJT3pX/4/7E1ZsNJlmuDd3UTCNHHw8bqV42U4Dsp3wOn199/It4+Sk3/6xxVyVmKOkh0nSZxHdaa7WsuBIvCDwgOOTwyeYOCK5zUezSQzNO9gjRsfF8C0i2+QefcxkYJ6gDFdVDFKCCE3BzkdK2MQdhwvxYOcZHU+teVXLMT33+XRbx/4Tr8NTb6dqtvp0txAqDV7iBIbdpsFLKAAeCNSCvFjHp8hvZg1y/iAs+0umI6kY+IgiHC2OrQNkfNW+VXbjQNYiurnUtM1K4S6uG7ycO3eRzEY2eCT+EfIbCsq31eRmSx1vTSHYYaaGPjti2cfxInPeL553FZ2tNp3LfHSKV4wtx6RpF4UvNB1ARujcXDHK/CGH5Wx/EHzBrpdOGoGIrfR8Mi4yQ6Oj/8AHh398isK30ayWaK7spDErDi4eFZI2DdV4t+XI5NbwD96ouVNKkCpClTSgilTUYoFKYpQRUYqqoxQRg1FVYpQU1GKrxVOKCnFRw1XilBaMYPMVZeyt5PxIPfrWXimKDFjtI1AHCCRtnHOrnw6fy1fAqcUGN3AH4dqpktYbhe7uIkkUcuIbqfNSNx9ay8VOKCzDBHAixx8QVeQd2cj0yxJ9quipxUgUEVNKUClKUClKUChpSgVGKmlBFKmmKCKipxSgjFMVNKCMUqcGmKBTFSKUClKUClKUClKUClKUClKUClKUClKUClKUClKUClKUClKUClKUClKUClKUClKUClKUH//2Q==;" vertex="1" parent="1">
          <mxGeometry x="15.97" y="120" width="40" height="40" as="geometry" />
        </mxCell>
        <mxCell id="oFOPfkIDdDdgaN84WTpM-12" value="" style="shape=image;verticalLabelPosition=bottom;labelBackgroundColor=default;verticalAlign=top;aspect=fixed;imageAspect=0;image=data:image/jpeg,/9j/4AAQSkZJRgABAQAAAQABAAD/2wBDAAsJCQcJCQcJCQkJCwkJCQkJCQsJCwsMCwsLDA0QDBEODQ4MEhkSJRodJR0ZHxwpKRYlNzU2GioyPi0pMBk7IRP/2wBDAQcICAsJCxULCxUsHRkdLCwsLCwsLCwsLCwsLCwsLCwsLCwsLCwsLCwsLCwsLCwsLCwsLCwsLCwsLCwsLCwsLCz/wAARCAC0AHMDASIAAhEBAxEB/8QAHAABAAMBAQEBAQAAAAAAAAAAAAQGBwUDAQII/8QAVBAAAQMDAQIHCAsNAw0AAAAAAQACAwQFEQYSIRMxQVFhdLMHIjQ1cZGhshQjMjM2UmRzdYGjFRYlJkJTVGNyorHD0RdDRCRFRlViZYKDhJKTpNT/xAAVAQEBAAAAAAAAAAAAAAAAAAAAAf/EABYRAQEBAAAAAAAAAAAAAAAAAAABQf/aAAwDAQACEQMRAD8A1tR6urpKGnnq6uZkNNA3bllkOGsGcDPLvOAB0qQq1rr4I6l6o0+aVhQc+p7pOlYS5sDLjVYOA6GnbGw/XUPY791cmXupwja4CySOOf76tazd5GROWbUcUb6aBz25cQ/JJdk9+RzqQYKf82PO7+qC6Td1K6OdmntFExvNNUTyuz5WtYPQvN3dQv5HeW62NP8AteyXjPk2wqfwEHxB53f1XzgIPiDzn+qC1num6p/RbOP+nqT/AD1+m907Uw91RWgjmEVU3+cVU+Ag+IPOf6pwEHxB6UFw/tQvm78GW3PKS+p9A2lKi7qUw2RNY4ifyzDWvbk84a6E/wAVReAp/wA230pwEH5tvpQaZTd1CyPAFVbrjAeeIwTtHlO013oVytd2tt5pWVlvm4anc98e1svY4SR7nMcx4DgR5F/PdRFEyIFrADwjBy8Rytc7mXwYZ9JXHtAguyIiAiIgKt66+COpep/zGKyKt65+CWpepHtGIMSoPBIf+P13KSotB4LD5ZM/95Vps+n4bnZ9Q3V9VNG+1iYxxRsjLJODpxP35dv5cbkHARSKOnFXW2+kLyxtVWU1MXtALmCWRsZcA7dkZXf1PpV9hbQSU001XHVSOpvbGNa8VJI4OP2sY77k8hQVhFbNQaQZYbRFcHVk09S6WCGWEsjEQkfG5ztgt77jGAvtJYdFSPoqSfVEjrjViFkcNPHHwYnmA2Yw7YcCcnHu/MgqSKyxaWzqb73p612xwElQ2ogYzbcwRiRmWPyAd+Dv/ivSssuiaR1fAdTzuraX2RGad1LjNRFtN4MuEeOMY40FPqvef+Yxaz3Mvgy36SuPaBZNU+8j9pi1juZfBlv0ncfXCC7oiICIiAq5rf4J6m6g/wBdqsaruthnSmpvo+U+ZzSgw+359ixZ55PXctH0fDPUaX1pBBG6Sad9TFDG3AL5H0LGtaC4gb/Ks4t/gsfQ6T1yupTXG6UTXso66spmPdtvbTVEsLXOxs5cIyN6DrUdjv8AbrnYKivt81NA6822Fr5HwOBkdM1waBG9x5Dyciu9yv1qoL3dKO8Avp4m2y52/wBqfKW1UbHAtaGg4O5paTuzlZrLdr3PwQnuVwl4KVk8XC1U7+DlZ7mRm044cOQqPPUVVVIZqqeaeYhrTJUSPkkIbuALnknd5UF7v1ZPXaEs9dUEmaprmVEnQXvqHbI6BxDyLz0/QauslZBSnT1LURT1kU0tbIY3mCNzWsc6KcPyAAMgbGc551Sn1lfJTRUb6qpdSRYMdO6aR0DCM4LYydkcZ5OVS477qKKMRR3a4tjA2Q0VMvejiw05yPqKC01tPcqLWdZLYGivro7e+rmjrZXPMZl2Y3sDnvBJALC0F24HHIuzTOulztV9dq200lJTQQufTzGNjJdoNeXPDS95BadnZORkniPLmMNXXU8xqKepqIag7WZYZZGSHaOTl7Tnfy7171V1vNcxsdZX1lRG0hwZNM9zNocuznGfqQcupzwIzx7TMrWO5ifxZxzXO4j99pWUVPvLv2mfxWq9zA/i3KOa7XAeoUF5REQEREBV/WYzpXU/0bUHzAFWBcLV4zpfU/0XVnf0MJQYTbvBWftzD98qWodu8EZ85N65UxAREQEREBERB4VPvJ/bZ6y1TuXH8XKoc14rh+5EVldT7w/ofH64C1LuWknT1d0Xmr9MMBQX1ERAREQFzL/R1Fxst5oKfg+HraGppoeGcWxh8jCBtOAP8F00QYXS6M1rTxcC+yzOcySXvo6ihLHAuJBaTMD6F+5tMasp4Z6iez1EcMEb5pXmaicGRsG044ZMT6FuK517GbLfRz2yvH2L0GLRWa/TugbDbKl7p3bMID6YbZwXflSjkBO9TfvS1l/qSq/89v8A/oVztPhGnz8ox54ZAryOJEYIbVeg+pj+59QX0r5I6gB1P7W9nuhnhMHHRlTWaV1fI1j2WWqLHta9p4ahGWuGQd86tj91fqkY/wAfV+ner1Q+BUB56Wm7NqEYhUWPUNJLTwVFrqY5qhr3RMMlK4uawhrjlkpHKOXlXrBpzVFU2R1PaKmRsbzG8iWibh4Adjv5hzhaHqbxxYD8krvRJCuppzwe49ff2USDKpdH60lZwbbJUAvfHvkqKFrAA4OJc4TkgfUVo+h7FcdP2makuDoDUVFbLWFtO8vbE18UcYYXkDJ73JwMb/rNqRFEREBERAREQFAvPie+fRlf2D1PUG7+KL39G13YPQVK0n23Tx+VM7KRXrkVDtGNrTnWYeycr5yIkZ8/dcdVZ4vZtSfr2GlXi3HNvtp56Ol7JqpE4AueqQP0uQ+eKMq62zfbrWeeipD9k1CK5qfxtp7q1xH2kC6enPeLl189hEuZqfxtpw/J7l69Ounpz3m59e/kRKmu4iIooiIgIiICIiAoN38U3r6Oruxepyg3fxTevo6u7F6Cn2fj071qn9LHK+8ioNn/ANHetU3qOV+5FakZ/P411V1p/Yxq62vxbauo0nZNVKn8bap627sY1dbX4ttXUaTsmqCu6oH4T04f1Nx823Tro6cPtVzHy0Hz08S5+qfGOmz+ruI/ep1P057i7D5YzsIwqa7yIiiiIiAiIgIiIChXbfarwP8Ad9aPsXqaolyGbddBz0NWPPE5BSrKcjThP6TS+oVf+QrP7JkM08cjdU0fpGFoHIqkZ/N441SPlbvTBErtbPF1s6KKlH2bVS6gYvWqOsNPnp4lc7Wc221n5HTdmFBXtVeHaZ6fuiOwKnad/wA7t5PZMTvrMLVC1V4bpn9q4+rCpunfdXf5+DslTXfREUUREQEREBERAUW4DNBchz0dUPsnKUo9b4HXdVqOzcgollJ4LT27/FUP8WhaFyH61nlnPtGnz8qoPS9i0PkKqRQ6rdfNTfOw+mlhKt9oObXaj8jp/UCqVYCL9qMEfl0xHkNJCVa7NvtVq6pD6qhrhar8M0z85X+pEp2nfd3f56n7LCg6s8L0z87X+pGp2nvfLuP1tN6YlTXfREUUREQEREBERAXjVDNLVjnp5h52Fey852ufDOxuNp8UjW54slpAygz2zn/JrB1q3dowLReQ/WqPa7Td44LQx1JkQT0Mr5Wz074XRxvY8vY9r8no70ZV45CiKNWjGodQ9LqQ/wDqQq02PxRauqxLhVlsurrzdqtlMZKepNNwTmSxZ7yCON201zgRvBVgtMM9NbrfTztDJYYGMkaHB4DhncHDcUFf1b4Zpjpmr+zjU7Tvvl4+dpuzKahtddcJrLNStjcKKWpfM18gY4iRjWjZyMHi5wvWyU9RSyXIVDGxulNPIxvCRveWhrmFzmsO4ZyB5EHbRfF9RRERAREQEREBcG/SzVT6PT9K9zZ7twprXxnDqW0xYFTKDg4c/Iij6X5/IOOzUTw0sE9TUSNigp4pJ55He5jijaXucegALkWGGombU3usifHWXjg5GRSZ2qS3x59i0pBJwQCXyD40jubcHYhhigihgijZHFDGyKKOMBrI42ANaxoG7AGAF6IiDi6iLm0duLSWk3/TTSWkjLXXWmaQcch5V2lxNSb6O2jl++HTO4dF1piu2gLgX2KSjfR6gp4y6W1iRldHGAX1NplIdUMA4y6PAljHOwj+8XfXwjOOg5QfiKWKWOOSJ7ZI5I2SRvYQ5r2OAc1zSN2Dxhei4Fo/BVZVWCTIgYySusZOcGge8CSlB54HHA3+4ezmK7/GgIiICIiDz2ndHGBxL7tHfxbkRBCuFFT3OnbTVW2afh6eeWNhAbMIZBIIpcg5YSBtDlxjiO+eOJEQflziM4Xzbdv4uJEQfMk4z0L9BxJ5ERB+S9wzxcfMvVEQQqy30tVJb55DI2agqhV08kTg1wcWOifG44OWODiHDl3cwIkhx4t24IiBtu2iN2Ahc7oREH0udk/0REQf/9k=;" vertex="1" parent="1">
          <mxGeometry x="24.03" y="228" width="31.94" height="50" as="geometry" />
        </mxCell>
        <mxCell id="oFOPfkIDdDdgaN84WTpM-13" value="" style="shape=image;verticalLabelPosition=bottom;labelBackgroundColor=default;verticalAlign=top;aspect=fixed;imageAspect=0;image=data:image/jpeg,/9j/4AAQSkZJRgABAQAAAQABAAD/2wBDAAsJCQcJCQcJCQkJCwkJCQkJCQsJCwsMCwsLDA0QDBEODQ4MEhkSJRodJR0ZHxwpKRYlNzU2GioyPi0pMBk7IRP/2wBDAQcICAsJCxULCxUsHRkdLCwsLCwsLCwsLCwsLCwsLCwsLCwsLCwsLCwsLCwsLCwsLCwsLCwsLCwsLCwsLCwsLCz/wAARCADMARMDASIAAhEBAxEB/8QAHAABAAIDAQEBAAAAAAAAAAAAAAQFAwYHAgEI/8QAPxAAAgEDAwIDBwEGBQIGAwAAAQIDAAQRBRIhEzEiQVEGFDJhcYGRIxVCUmKhsQckwdHwM1M0Q0RyguEWkvH/xAAZAQEAAwEBAAAAAAAAAAAAAAAAAgMEAQX/xAAtEQACAgEEAAUBCAMAAAAAAAAAAQIDEQQSITETIkFR8GEFFDJxgZGh0UKxwf/aAAwDAQACEQMRAD8A63SlKAUpSgFKUoBSlKAUpSgFKUoBSlKAUpSgFKV9oD5SlYp7i2to2luJooY1GS8zqi8c92NAZaVql/7daDav0bXqXkxUsvSGyEgcf9Rv9qz+zPtM2u+8RTWpt7mBFlcKwePY7FVGe+aHMmyUpSh0UpSgFKUoBSlKAUpSgFKUoBSlKAc05pSgHNOaUoBzTmlKAc05pSgHNOaUoBzTmlKAc05pSgHNKjXd9p9gnUvLmCBPIzOFJ+Sg8n7CtQ1H/ETSYTNFpsEl5NGuS0mYovsCN5/AoDeCQASSABkkk8ADzJqg1D2u9nNPYRNdrcXDbgsNpiQkjyL/AAD81yzXPa3UtXhjF0ekekY3tbZ5ETJLHeRkjPIH2rVZLu5k6Y3BRGu1dvxAf+7v/WpKLZHJ0rVP8RdRkWRLGOCxXftD3H6s5QHBZQBjPp4a0y+1q5vppZJ7i4uRKiq3vLMQvHIUZ7VQ89ySSTyT61kXceAMkkYqSikRbZexShlXB8O0YA8q6T/h5bkW2sXRH/UuILdT8ok3n+rVyOJpYzwRuPZOSTj0Ars3sFNb/sSKAtsvDPcT3ED+GVNz4U7TzjAFca4CfPJt/NOaUqBYOac0pQDmnNKUA5pzSlAOac0pQDmnNKUA5pSlAPxT8UpQD8U/FKUA/FPxSlAPxT8UpQD8UpVJqPtT7N6Yxjnv4nnGf8vakTTZHcEIcA/UigLuvMkkcSNJK6RxqMs8jBVUepLcVzDUP8TLuc3EWlWkdr0+BPekO5PfAUEID9S1aNqWvanqcedRvbi4m3EgK+IlUnO3bwg+y11LJzJ2HUvbr2ZsG6MczXlwSVVLYfp7h5GVvD+M1pWp/wCIOvXQuooOlpiJlYyMtK5x23uM/ha5+97cuQQEQquxW2gyBT/O3OawbzzkksT8Tcmp7COS0u9SmujG9xLNPcKdzzyu3iI9c8n+lQZbqR2Zi5y3cKAoP1xWA5Yhed2cAeRr2Ii2dxCNkKoI758yfSu8I4AxbI9cV6ETN8vPnivlrE0k6LujUePc8rbUXA7k/wD1VzHZ2cXTa5Z7gMFfqZ6cCbh4coD1DnyyV+lWbJexFySK2G3klYpDFJM6/GqD4fmzdh9zVjFpxCuZZQ4QhGgtCryq5GQpkPhz9AayvdZUWyDeyyJ0fdAI4Oo+NiMAQnHnnOfWvdzBdQz3dveySwalHFGLa2sozM1w8pyRI8bEjArTDSyf4iqVuOj6sljbMFixtlGxHt9zXS45LFmJbHp2rZNNubg21lIWNtHGdyXiqzS5XwgHZ2z5mqvpJYyW8nUXR5Ht1hubS2UT3sgLDnLMQufUkd+1Sre8jgWOO1idbXaqywzymT3gDzlxgfgVpVKx5F8+fmZ5Tz2b5p3tLJEYrfWE6ZkGYbtQOnKvYMwX+9bSjpIqujBkYZVlIZSD5gjiuTftRImnS2gU20yDMNwN6I5HdMHIA8uaiRXt7FhYriaNc/uSOFH2BxVMtFu8y4LI6hx47OzVXXmoGFdWVAAbK2hbqNyBNPuCgj5cE/Wtb03U/aLTITJqttcmyADdSfYSqnsRIpI+gNQL72jtLpNZtoRKTd3qyvNtAjW1ihjVRwc54yeOK8ltejNqlns3yO6ieS3ijJk6tsbkSD4dmVVT/wDLPH0rOGVhlWUjLDIIIyDgjj0rW4L2JtZu2glDWWmaOrO0TAxyBQHUZHHGW/FXWmxNDYWMbfH0UeTPnI46jn8k0ySJf4p+KUroH4p+KUoB+KfilKAfilKUA+1PtSlAPtT7UpQD7U+1KUA+1PtSlARr9OpY6gmPjtLlPzGwr8862Ftb7bCgU9GKQE5OC4ySq9q/RzKHV1PZlZT9xivzr7SqEvId3nb7Pukjriux7OMp3mmfG92Ykk7nOa8MzfvfYivn8p4HqfKgI4X4s4PAzgelWpeyIdAB2IHkTgFv969YQcO3J+HB44ODWVba5dYmZTHDKQiSSKQu3djOfQVIW3tbZnE36wZSI28a7CDyxQNnnyyftV8aJMg5pEVBJI0aRpySI43HALFu5J/3qSLRFJS6lCtj9EqR02AOGO4jsPpUpBM8MZkS4i0wy9Bbowu6oGJfCZIjLcevrzxV/BZQxPf2UtvHc6e8W79p3KdNIpHVTGpu2ZQyDHGzk54GDg61p1Dvv+fn0KZWmvW0BvZbS0gjgjdyyR3EzC3hYKSS7yOOSak2ttPJeSWfu8mopbySJJFZTt0SwBUSCZfCFB5BOM1s0NhZ3GnaZ+1L2LULeyAWHoSS21sqNuBjZnwWdccAKpPAPcE+n1RLd4YNJdIoFaPYpgjgto5MBOquBv8ANg+7I88A1fC3CcYRz/z9SmXm5ZDsrWz6V1pOpahFDD1vefc7cyt7vJHyUe6cBC2MnGCfQ5q195gEJg0S0uZ5jahbi6gjmaWFiu1QZZFZzwcc4o2laldqsl7ewSz2hE09pdiUL0cjEiyw53RsMeID61Ye4xvprRQSNFYxyy3e+zuUuGtJH5Yy9Jv1IfQ4DL6Gs9k4Zy3n/QSfsai6TDpR3HUMlsnQAmB6iLuL7W3eLv617B7cAVbX0to9iBc3cF5qSvGLaa1WXctuM7luZJAu4/w8ZHrVUzLDam5jQXU6yFZLUKd0cIXcZgAct6YA47mtnjKENzXXzghs3PCL3TdDjvbNLqa6aNJJJFRIkVvgbadxbzqPd6Lf28oWJetA5PTlUgKPlJnsaz2Fzc2MIvbKSO50q5kZ2EZ3Im/xdOVfiVh2z/etjtbm1vI3e2Ykhcy27YLoMY8Q81+Y/pXjvX2xm5LlGz7vBxx6mgatqF/b6Vc6eVvN63EQkzLK0UQibcVKZ2A5xVBZ6yER1uN/VlPT3LgLsZgSGXjH1xXTdQ0krbS3FjN7r7tDdToh2kh2BZjG0mQD3wTXN9b0vSoF0qTTp+pLNbvLfRyO7XCT7zzJkBRkdgPv8486mXkRNLwliTNjg1efT7GaG22dS8bFy8jDoPaBR+mCefXOB/eus6PeXGoabp97cQrDLcwiYxruwFbJUgNzyMH71+cbaG7mljt4I5JJZW8MUYZnPlwB5etdh9nNT1OxhS0uZIriG3WOLpRuJJLbw8KZQcdh25+orktNOEcy4HjLODfKfasFtdW91GskL7lKg4PDDPqDWes5fnI+1PtSlAPtT7UpQD7UpSgH4p+KUoB+KfinrUObUbSHIDdR/wCGPBH3btXG8AmVhmubaAfqyKp8l7ufoo5qom1G6lyFPST0j+LHzY8/2qG3PJyT3z5/c1BzXodSLKXViciCPA/ifBP2Ucf1r5BqMqMeuWkRsnIA3KfkB5VUkHuPLy9a9o4K/I/8xiq97ySwiNqftjOqyJplo/UQlWeeKSV0I77oouAR82rjWp++NcztcHezO8u4Y2kSnfuGK7dLc6tBbTrpksKTkmRRPGrI7YwRnIwT5E5/1HIdXa+m1C+lvNxumlZrgyAIwfAzkDAH4r1vs7T/AHmT3NYX7mO+zwuUVa2EqvGl4WhR/ExIRmAxkAqG7nyyRVjpumT3UskFramdXG83BiLxwqhwVeWMMg8skZ7/AIvLTSNOvNOjnWHVdSuJYmaSOGEWojfG3EUjkIzZyQcSZAOQM8bPFp15PBbreyi2i2KJ7CxSKNCMOelLLFjOGKtwQCV+HmrbJQpWHx8/f/hBOU+jUYdLg0y5ih9oIJHsb0JHb3NuzpHEoc5WQsokA5BGfrg54kWns+ltPcMbWLU9LkKRLqUaySJbDLB1jijbxP2BYA7e/qK3IaFZzaRLpYeeK02ARzyz9Xoso8LB7jK8egx34xmqSx1cnTZLUyRWMWnW1tBaW2ndZrq+mMgQsjuC4BySQrZHr51XHUuUHKpc+v8AYlW08SZEvLYaJaR2lvNb381y3Rt7W/b3iaK26jFRDbKuzbuznc3JwceQorqPUppyNQebrQMYzFNx0cd0WNMIuPQCtsgFxbGW0uYLOxurm4kN6ZYknlaMrltucx7jjJGWz34Jw0O5sFv2EmlLqF4wE7Xd1cKiRzypyTECQ2485GPIVr0t69e/cosg0USRhQBn5/8AM1a2t5bmFbLUYzLajcIJYgBc2ZY5LRE8Fc8lTwfkarh3IPkSPoRwc16yK9KUVYsGbLXReJfW1jZSQxajJdzoVbTDHbvB7g28F5OpKd3iGQVGRVRcXDzzTTssUbSkFxboIkLYwSFXjnuaxcHv5VPaQ2MFtNBaoJJI0kknkYzSQdXd0w0booUttcqcHIXPllsdrhplvfLZdWna8GD3O5EPXk2RREAoZnCNICCf00PiP48xWForhYkuEDhQ2ElQ/A4+YOQaF5rh2klkZ3PJZyS3/wDKyxySW+ShPiGHU+KORfNXDcfSsL1828NLBpWmiumfYZr2wnN1bSxQTOv64dQLK8HmtxGOFY/xAY9cd6toZ7e8WW50lnsdYtVLTaZIyo5YjObdmOCD5DODUKM206SSQ7E2qWmtpWQMi+ZhLHxKOeO44HOartRis0hi6gLQfDGYuJ7bfnxQMf3fVDwfkeaqlp1d5quySscPLM2PTdQ9qm0/VbzWjcRwWtseqNRhjt0mO4kRp4ASW4B58/OsDWGh6tfztaORbSiGS2SZBHNIHwCi9TwgD1547A+dJpVpZzXG27Gp39qLaX3dbUdKR5cjbKY3LgLjI5J7/Y3VlbWQkdNVnuknt3TbbbWae48I2KJB3J4xjHlzg4qyqq2lyb8v5ELZwnhLktLfQ4ILdEtU90hkOZ2HUikYqGz1ZZRvbkAhT5dgc17FxDE8PTVffGUxi8KEQNPMRIIo7dnznBLLvxx2XnjMDcRJFNeRyRWxeNLbdJvv4owwyDGuQwbncBlsdydvEkSTTAC3DxROrTLcQfqSPEpKFTMDtUnI4XBwOWzkCiUpZzN5JpL/ABPEVxNYSQe+TmO+MwhVIpC0k+FKhpSRsQNwcHny288bDZazFIFW82wSExoHY4idnBwMnsTj/natKOy2huo7eF9RQI3VVUkNpHJJgyt1CxZgSM4BOP4qqRNdX8gurtrhrK3ZEmeBVEcCk42QhsJn5Dmro6bxFl8Iqd2x4idjzSucaT7VT2Enu8hlubEOyxdQYnSMHAI7/jNbXd+1Ps9ZWS3014myTwxQr/4mR/4BGefucD51luolU8M01Xxt4XZeZxySO2aVxfXPa/W/aCaXT7cS2duzL0rWDLPcKDn9V15IPywK3z2K/wDyAWUianOskUQRIEPieI4yU6vmAMfT1qrBdk2z8UpSuHR+ah3t41qAEjDsQT4iQqjOASBUyq/Vtkdq9y+dturySbVLHphcnwjk1x9Aqpbu5nz1JCR/APCn/wCo/wBaw5r623aki5McgBU49ecV8B7kVmbeeSZ9zn8dqcnvQV6FDp52jyFY2BU7kGT++vm47cfP0/4RnVWc7VUsx7BQSf6VDvtT0bTARf3kYkB/6EJEsxPptTODRAzoepjYGO7OMA5+hFU+u6ZoM02nT6jcR29ylxBja6iWeNTuKS8HwjGc/bz4pb72nvLp2j02KWwhkIWTlXu5+DtcqM7TwR69vSohihQSStuaaRHDyTEtMSwK5yST/Wra5Tqlui8MhJKSwzd3OmW6Bze2Nuk69YF54y0gc8Oqqxds+XB9Kqrj2ih2j9l26yF2mijvtS3RWwuI/wDyxEPFk+W4j6VqtvYWKSRvdappa2zQspdZWE0WxiVKoABu5B7jkVPfXbUGabRrRJmLgSaxqrdK26qrs3RYUFnx5ImfXPeuKO58cs5lJexaiC/v0luNUvZ4LN1hlW6vWSAQIwxLDHb/AA7fNSQPoc4qja/gvptXl0q3jjt7C6F1aajl4GcIVjMcT8KXPxgd+MACq2aaS/lWW8nl1CQMSZb5HSwtyFLZjsoySfq58+VrIZImw0m64l6UKqzsY44MZLRwpGQm3sMBV7fnfXB0tSsePoUTfiLEUX2haksd3cSm2e71vUrmOFJZ5oooenIxLliwGOcEgDxY8qzz3kc93LY3RluRDLN1orDMFlKVJUrN2IC5BLO+fUEVR6fqFnZBnni2XELK8N3DD15IwSytJ05CUO0H4cAcZ+Ic3TGAjS9PjudNi0y9v3vJLuPYGkyEfp3BjUxhuQAeMA4IGM12xwlZuq+fPYhGMlHzmHWILX3WK5lSys5+motbS1ChnjMgBExIBJUZwQAOPPOaoSCpZGDK6HDIwIdW9GB5zW3T3OkNOlzYWCdO3D2qak/hslmTBaJI+WkxnGMDOTgnvUCeHTpYFW7ubm91E22yzj09EWC2VFyCCPB0xkbixyMHO0jFbtLqsLbIosq9TX+/B7VZQX/UAjvWyAjrHOY+s0YbGVmQ8uhwu5T8WxVJCZFRrmyvbGRYbuLZIyLIuGVldD+8rLwR5fasFejOqF8PN0ZVY63wSbu1NkHuItvQEPvDoH3r0S23qW0r43AnC47s2/YNkea9W1pd6h02xtjZFlSOIxtIUZFdWllyYkUhkOSWIDE4HTIqI7ySQm3Mkhg6nW6e9gnV27N+Afixxmsi3NytrDZLIy2sI2pEvhGMsQGI74ycZzjJ9a8p/Zss/iNn3lY6LKVdLtoJ7KENcTzFECWoJAlUgo8krAyO4Pl2G9wAowahT6dPbi0fUbScW0p3bd4jZgCQUDgEBvt5/OoysylWVirKQykHBBB4IIq+s54byGe4u7S/1C9V4onkkBmgSORyMBVUsox8W1STjIIrWq/u0fLyvUolPxHyZrSxnC297ph/ZNpDaMDdXEjOJ40yys0XiGDjBy/JGQPKvUFvb6jGIRClvcuySz6heTSs8ixnDSWvUwSTg5zgAEceYjz/ALMsumkknvKykXK29pLPCLRwoMbJvZgCSMPu3NxnjOBXXupXl8YxcyExwgCNScgcbdzE8lscE+eKjCudjyv3+d/rwcclHsuzqUdvcSQ6ap1O7lTpw3c6l5o1ztKeMDKgdvhHPn5/YrSci8GqSXyS3Ur7oIQVjnkwHVoEi+NiM8AYHmPOoGnazHawJbxxw2r/AKjTXiw9aV8YKFUyAX7jk48z25jT395Ms5s4Z4rZ3Mc07bmklLncVmuAAoB77V2r8j3qDrkspLH1O7k/6Jb3SWCXFvLdSXIDlYLaOQKY4VyFS6uYj29UQ/8AyHasHR1HUJGgleO2kgiVrSylBtkKNliIEYBAAASSf6mqS41GwsYun0knklmULerJIIYUXkiMDAzkdzWHX9a1SeDTBJtaDNyTK4xNdFyrMsr/ABFRxg/P5VVLUQhnZyy2NEpd9Fnqer6JbrEtnZyCWQCGVpZjJBDJG3xo6EZbuCDxz6iq6007U9ZlladgbZnDi6bw7B5CJcZyPxUjQtHgltIru63tDOOpDayAFQmeC5HfPcduMVsstzbWkQaR0jiTwqAO+BwqqPOvNlJye41qCgsIyabpttZLHDaoXnfEXVfmWRmPbPkM+Qro9lapZ20FuvOxTuP8TsdzN+a5poer6g+sW/Q0/rRx7gYSSJY9/AlkfG0EDOB866mOwOMcdvSk4Shjd6na5xnnHoffzSlKgWj8ViuIlmgniYArJG6Ec8hgQRWWlAaRp1lBpj3Vtbq62irGxgaSSQLksrOjSsWGOOO3+s1xsOByreJW8iKxX3vVrr5wJZIJrYtFGOmsaeP9XBADE/CwBJ86zzbxCy25gy2JIuurtGMHJ4jZW57d/scVVKPGSSZ5hR5CQis7YyQOyj1JPFV1/r+iaaJA0rXk6cGCwwyK3pJcHwD6DNQtQXV7wzpcyMlnuPRsrLw2yqP+8yeNz65H2qne0yrxSx7IQqkKBt3D0T0/FVrCfIf0I2oe1eu3+YoClnasf+jZsUYqOxmmPjOfqBVfAltJJIpDvPFiUrbH9WZc/DuJPB7k/wC9Zvc1t4pD1UG0EKXIUFS28KTnPft9KrJTbWs8b9OeeedUzCA/VKuOAcD0wVwKubWfKQWX2WKMWW3nMQhlEjMCp6mVLNsXIAU44z9a+Xbl0t5reWSe4CSS37Er049w2pGqjkkHk/8AMVt37zY3ELATRRNGJ0inI3eRIYIT5jissFzFFfQ3i26TidGR7VTKIuqMBW/SyzY7kY/Hl3bLPlQyvUxItijREW5aWQjdLqTda3tjjJ6duihSB5F93/t4yc3VS5bfJIbiUJ0pGlJZEOc4hGFKjGBjAHfyrLJGUKKWjZpAjbYDu2vIeIiBnxDsRz6VGvbK5tEW+SJYCoaOeN5E6cpj+Io24/qduohO4ZDAFWxH6t0PDri6uM/uY65bpNTM7MWO5yWbk5Jyc+dYRPJIZ0tImuJobe5u5EiZFAht03yPvc4O0ckDJ/FfY7a5nMyxp79dR22naxZQQ59wu7LduuIpkkCysy9iA37r+lWvu9lZ9FpLmOZLO6fV9BiUCW0W1vT/AJiwuYmYlD65J7H+IGvPjVKb4NTkorkr4LOeeSQpH+0JLZNM1eOGNGWxu9MfPvAaGQLMzISAcN+63pVpeSPZwR6RBc20mlwy+92/uoiCuZssrykZbeAdpDMSMY+uVI72ZLWG3R9P0+J7l9PWQM88UE2WeO3YbZmQDJJJVeSSwpH0bX/wdoJLh+l7k9xd2IlvAzskhgnKyWyhcYKqCTk5Y7drehVXGh7pcv2Ms5uxYR5t733r9mWOqXUsemWbvs6USybd2GEcoxkpxyMHjyPar3SY9b1WO7nl6Gn6asLxWaLbKFcHBa4j652hOAMnIOSMDvWC8triUfszTorZVRpDdwqkbNFGzKVmfZkLk7gBt3jnkK4FVZQ2E1hBqTveaMl20pjsrjNvKyMpkUA8bgdu9Tj0zzmq7o12+aLSl3gVucVtfKMtzaJdTBLCS4v5mYRvdhgLOSRU3uqvJzv+W4j0znC4brTBYw5uLmJbwSsptQHLNFnCyI2O3B3AgdvufLao7XLLFM2n2bl4kWBC6QxlsgrEW4A78NkHseKiSwzwuvVDZmHVjLFSZYixAk4J4Pl/wnZo9RKzEc4wUXVKOXg8HHf5E8edBznPrjNfDjBA9DXuNJJHjjQAvLII0BKqCzttGSxAH3NepxkxrODyRj79vn86ywyXtuvvMBniSQPCJow6K+4YZVkHHPyNW0GlWlt0p9RuYht2SvGwEkAUSlOmybhMzN3QBMHGOcEGRqM5hhKyxXVva3kg2206xG+kjwziNS6FIkyS2CWbxEgKO+Kd6b2xWfn8miMHjLNfghurqRo7eIyOo3uchUjX+OWRiFUfMkVM6MFpGtwqe+OHVTdSQu2nQPnGYoiA0hB82AXIwAe9ZEu4Y1gN9ZbdJk3e7W8GFUuCCZtrNvkbAK7mJ75BBHFLLr00g1DTdOuLi2tHciGKdld9pYuI2IXdjPJ9Tz37036nbwydVO7lEjVJLC0uGCXyXIlKssiIUYu/LblxgYOc448ucVXNcancyNY7HawYM8axt+khbG+Qv5E4GfoOKW2mz3EAXUQMI2UCOTMSD8Qcds1cpFDEqpHGqoo+FRwT868y3UTsSTfBuhVGHXZDsNLgtkPVkNxltyq4HTVQcqNvYketVuqI+q65a6emRHEscL4/dTHVmb/T7CtgkljhR5XI2Rq0j588eLH3rXdIivp57uaLqG6vGkQCFczshbexXPCqTjcxPlVUK5TfCJykorLNoudRt7VejAivJGijYDiKBFGF6r9gPl3rPo3s9rGuzJcStJFbj/1DrscqfK3Rh4R/MRk+Q9L72d9h1jEN1quGcMJI7dc9JGxwxDd2+Z+w8636OOOJQkahUHYAcVZujX+Dl+/9FSjKzmXC9iBpWjadpECw2kKrjJZyPEzHuSTz/WrKlKobbeWaFFRWEPxSlK4dFKUoCv1TTk1CAqGaOeMiS3lTh45F5Vh9P68jsa19ZWxIjLia3dfeosEGNmBBdM8FG5IPy9QRW4VT6rp3UaO+t1/zEAbeAcCWIjxI2PI9/qAfLnjBTSpyfQ9sVAuIFdWyMmrDek0aSKHUHcNsgAdSpKlWAzyPrWCXkhQGZm+FVBZmPoAvNZHwyw03U4FG6Nwdjd/VT5EVA03qe+xRSdFHhKzrdyDMvTUhAE58s/YZroKeyl3qJ33rm0gYglV2tcsPTnKr98/SoGv+yVtp0cdzYhxbR7T1XPWmsLgDaJ8vkmNuzjyznsfBfXnGGVyS7NWudFkupbhHsiqsZAt6ty+RIA0haVHymOOeBjv5YOv9eRosIBDAw8SRM7bkAyFkkY7yD6cD+UVeNqN3Gl7a6o8hntun7taLDGLK4BxzMsSgsg4ZhuwRwBkYMe6ttFsbq8tbtnlknLvaGwcOtoGcGM53DIYbg6sisu3gHOT6NMVp1i15b69Sibdn4SZGg0+ws9b0l47iKBouut6sHWZ/gdbdQNykFufPgHPlUrXLVbmy07U1Vksr6LZFDcSoJcqSRItunAU88gt8yC2Kw6FKumR60IokaC4/yz6hcWU7W+OohCyAK20MoztKk5xyu7I9zFZbBkgij9zt5Vmi6kqyXcUWAHVEhyBGDkln555yc1OuLjYrJSyRnJOO1Ii2LXkg07TbaWKJ4JZ5LOXLJPBvUtIiSJ+oQe4UA5Y8ctzZW9ppsUxso7mNtXkslv7UXMLM8UQBlMnTCNbr4RkEu7DOe4KV70aSOZ2ttPjtVaUukkd06tc3mEZxs2/rNxnKqAMfvAjdWY6gzOba1vcJGiSSTOscdxLKXAkjha4cQKV5JYjPGcM2WksdkrG41LHuVbVDmfJ4ktJ5bi5eQJDd3FyxtoYrWQ3jWJjkWWK4iuJWSQMMcsduATlg20ZpbS4hVIIo47S2jthDGNMXfcwvNJnZcCCLqKrncf04wGOMnByK+We106SYRxyveSRY95n60c0cjAGO6iaYdUP3DjleMqRULTmvRcXUKdOWa6c9Zb6QxL1YS0g3F3U7hzwW5PBB8o7JxallY+vf6HVKMk16lpfCSO2FnaWdjYQajMHivY7s4UOpLxS3SktsIZWIOcZI8Q4WmuLMWsNoLZOpaIY9PsLmC1WOTWtUuZQXXfO4PRj7I2OMjzY4s7GfT9Rufc7q3nlu7xDJ71teacSqP1WjRAEVScHsOTyec1aLomsxKxnltXkMIsrKW6F1eT2Ns+YSLeFD0AzBsY3ceR86qt28xfDX8lkNyx6pmqW1pNf3aWFs0LXJuHtmxKkiRPHkuWaIkEDBOQTnHHet+tvZrSLO1FtcObl32Nvum2sSGPEKxFWCk+Qb6mqOz0+bQdb013ib9iWFpPaWEoaGUHqsOq8j24A3tlic5PkO1bikSqZLiOfqRSID711N8hDYBVAg4PHf+gxxkeYNNMv4foa3dezVjICtq0lrdA9NY52YwTTHJ6aiTMgPkDkg/wBtbFld5nEyi3iglaC4mugVjSVeDEAAWd/5VB+eBzW/SyyBRFbBo12dPqSNmZo8k4LnnA/4a0PVbhJb6bpyM8cW2GPLEqAow2zPABOTXqaHUWSbg2Y9RVCKUkiRb3VmbqJPeZoiVWOTUZwrXxRVCLHByyxJjjI3HA5bHw1+oa3NYWuoWEYE6JdSpK9wiNJFJjYySHnntznuvBxwJVve2JtJre9t2kClZLcwhE8S5yHcEHzJJw2cAEHAxpVk0k1/FgjFxM3VB7Ohy7Ar2pqpOPXHzs5RFS7LHoXOotb3MEpCqQGMuSoGMExkd/pVxBa28L9XYrT7AjTFRvI+1ZRtUKoAUKMAAYAA8uK8SSpEgLHAJI+Z+QFeXls2cIz5GV45Hi+9YWuSzpb28b3Fy4YrFFg4xyS7dgB3JJwPMioyNcXgjYGSC0mYpFIidW4umXgpaRKQXPrghR5sMYO56D7GvcIGu4/d7J9pa13iSW42ncDfTrjef5BhB6E97VWksz4K3PLxE17TdDv9bZkjCXG8NG92QxsrVcYYWinHUk8t5wq+W48107QvZrTNEgVIow82FMkr+J3YebMe5+2B5AedvbWtvaRLFBGqIqgDAGSB27VmrkrW1sjwicYf5PsUpSqiwUpSgFKUoBSlKAUpSgKuXSUkmZkk6cL+J0VcsGJ52k8YP0qZb2dpajEMQDEYZzy7fVjzUilRUUuRkYr4yqysrKCrAqwbkEEYIINfaVIHP/aP2ZtVltXIlS0E0fu00DbZbVi2fd3cg+A94zjjG3jIJ1DULazudVvBE0EVxdW8rajdXiGOOxnikWWSa0UAFmZV+Hbkl8A45Ha5YYZ4pIZkWSKVSkiOMqynuDXPvaP2ddXBQb2xi1lbvOq8iGU/9xf3T5j55xopms7Zvgpsi0t0UaTaSai09tYvZas1rcSxXE0UJ6XWttwRJhnMBJyoB55OAcnizW2tNNuHuRcqgF1+nbT263MktixUpcRvuW3cnkYzjgnuuBGsevHqFuI7j3WZi9v1XGSoYH9Pa2BkngZIAJByMZEEteyhpbmO6D75EZ7hZVLMjlGw0nfBBBwe9aL6lp47c5TK65+LylgvIk1S+u9RvNCtZre2nlaKVY7qNFi6g6hR5ZGUgHkj64BI4MWzlsojsngU3HWIUzKGj2ldhjkJOUAPJZVZueMFQTVcErlQdpBIOPLzGRjPfBx5/mZdzaJ0wunx6iZeod819Jb7OltHhWOFe+fPP98LKrVR2uM+PyI2UPKceSz1Jngt9IvodTjnETlrTauJIXEnVJTcTI+0/EWxz9aobiSIzTT20cu6aeeab3mUP1uocjCIoRcc9s98Z4zWIAk8A8+dZQigDcRkf8xWGVkppKTNChGPKN49kYZLfS5byezi9+cIpW1YvI0J3NH1cMwB77sDyHGeRfb7maNuFuHd+YYpoo0ghJxuMic7sZ28+eDju3PNK1u80uVeg46b4Ro5BmNlznB/0xW0tr1tOqQ9KS2Qgs0cRXplmJJOcZ+1VTeWTWEWE7wRpNaofeFnVoDH2twrNgHHxmQcDO707kcaF+1JtPlmt5nkjEcjoGOenKFYgMpHhNbTc6rb2Ntd3NujGaG3mlRidxj2r8SjtkevlXLTNe2RKpPMFkJZTHIyknz3AH+tIxyw2bfJrdzJb3EyyOtrFGzSzMNsecHai9tzE4AH34AqitLtbl5VXLCNULO3G+Rs52r6VHs+lfe+Jq1zelltz7jsdpCLhmAAdXyMAcnkfXipNvCkCBF5JILN2ycAVupXgy3z4wUWedbYktjbx2eoyyGAzxxuY1umu1RojEybYPdTjq7iCN42kccYO6k0WL/OK5x+lDIw+rYQf3NWc0M17FJbW0byTEZKJyXUHdhP5uOB5+XPBgabbSt7xmeCCPMSyPKzbnQ5wIoYx1HbPAUeZ5wOROxO/wA8Oc/wQh5FtlwW0l5mRIbdGnnlPTiSJWdnf+FFXkn6fmpVhot3fXIGyO8uFcLIpYyadaN/BM8R/VkH/bQ7fVm7C/0T2TnvAAYHs7Ro0juN5Av71Bz/AJyWM7UQ/wDaTv8AvEkbq6RYaZY6dFFFbxIojUIu1FUKv8KKOAP+c1RmNXC5ZPzWfRFNovsvbWTe93ha4vpFVZJZgu/avaNQngVB5IoAHz8tlAAAAAAAwAOAAPICvtKolJyeWXRiorCFKUqJIUpSgFKUoBSlKAUpSgFKUoBSlKAUpSgFVut3OmWmnXU2o5NsoA2qMyPIfgWL+bPb079hVlVH7VWoutD1BSOY+jOuPLpyAk/jNAck1O+XULh5hAsSsu1gpy0ncb5CONx88AVsie0GiX+hPa6zvW8sYlS1MEG5pwoCJ08YUHyYHAwM/TVJ4GiYqfnj5isWK625LDIpJdGNmMhJIwuchRzj6mvapn6V6URgE/Wsck4A4riGTIXVKjyTbs4qM8zEkZrwMtyTxXQZeo7Yx3BqeL2IdLrXdxG6ovUAtElGR5o3VX+oqtjkBcBFJAPibyFYZ1lmlJ3Hp4UADPJHc1bVRK6W2JCc1BZkX19qFzc6XdjSbK9eyjmt01XVLhFctgiSODbHlEjztY98kLkgcGjW2nO55N7M/LFgT/8AdT9Pik6U0AklW1bNxcRq5ETCIDxyDODjjFBcxFwoQhT8LEk8D7D+hr0K41aSWLOWZ5ylasw6M40pIYXW76rzPDBI0doVxbQTFSsk8xBXJHYKCBnxMMbT5f3aK9ntIbia7hX3c2zmLbcT9ZAyxNGuf1BnBwD24HNWNrcKqpFOdqRb/d7jYrvaGT4gUbhon/8AMQ985GD8V9YaJf6rOpiSa0tlVo45FHSu5LdiSyW6ZIghYkk+IsfNjniGpqk57pvg7VYsYXZRW1hczzrb9CO5nQHfYglbSzbdw1/cxH4ux2Kd3luX4T0DRPZKOGd9S1Futfzu8sspjSPxv36MaDCL9sn5Ve6VolhpUMUcEUa7AdoQYRSe5APJPqTzVrWN3YW2HC/2XqvLzI8oiRqqIoVVHAUYAr1SlUFopSlAKUpQClKUApSlAKUpQClKUApSlAKUpQClKUArFdQi4trqAgYmgli57eNStZaUB+cJtQurPUby1vnZ4TM+C3LRBjkFfl6iprDHIIZSAwYdiD2Iqy9vdBlgvrqdIyCHkmj2g4ltXYtlfmhJBrXdHuuorWMjcqC9sx9O5T/auo40TRzn8VCuUZGGGyrflT6GpOZWLKydPaxBwclsenyrDcbgi9NctuwM+WfOuHCPhUAZvPsB3P0r0sUkg3yeCPvjOOPnRUVDvkO5zzz/ALVlDiZGQdyD27jipYOG0aT7Lo8Hvmru1nZFMwQqVFxcbkJVz3wOxAxk/wAo765bWzCC3mlRgtx1Hhf92RVYocFeMgjkdx6c87z7MG01DTNPlnaWcwwe6ukxXo28Fv8AotK3OMcEjzPpVdrNnbaZb6fYWYhiW5U6jeWwyXgmA2I3jYlFZTnbgfPPG3XobNtuEUamOa3kqrC4hsriKWS2huIQyGSCX4JFVg4U4+YB+1b/ADe0fs9rNjLp66RdSzzQkLbiGEJCx7SdUHaAD54+1ajpWh3eoNG+1o4XbCNtzJKRziBD3/8AcePr5dK0j2fstOiUdNNxwxX4ju9ZX7sf6Vr1ttLfuzPpoWfkjX9C9kIwUubrDNkMpIzCnoIVcckfxH7Ct4t7eG2QRxLtXOTkksx9WJ5rKKV5U5yn+Jm+MIw6QpSlQJilKUApSlAKUpQClKUApSlAKUpQClKUApSlAKUpQClKUApSlAV+r6Va6vaPbzAK4y9vLjLQyYxkfI9mHn/bhOq+z+oaVqg6UJSSG4UyQhgAAWzujJ4KEdv+Y/Q1UntDoUWs2wKbY76AE20pHDDuYpD/AAn+h5+R4DjU64lkA9c/kVGk4z/ep1+kttcSx3CmKSMmOVJPCyupxtP+lXGkexmu6zsllU2Fi3ImukPWkU+cNucN92I+9dOYNIk6ryLHGkjySMEjjiVnkdz2VVXkk1LNpb2SSG7kM1/tISztnBhtieA15MuQWH8C/dv3a6peew9rY2DDS3umbpOl2S/+ZmVh4pI3QAg44KjuPnw+kWfsreGeQMB0FIAnZQY2U9umg8Rb5Y4+fatumVUsux9FFrlHG1EvTtav4tMstJ0u3kiuHyDcFknnOT/6ZNgRcfxHOKvdF9lZZ36t1iaQvvkMpaSFJCckyueXf+n962DRPZiCzTc8bxhiC24/5mf5zOOw/lH9Ox2hESNVRFVUUYVVACqPQAVCd0Y5jSsIRqcubHkj2ljbWa4jG5yMNI+C588D0HyFSqUrKaBSlKAUpSgFKUoBSlKAUpSgFKUoBSlKAUpSgFKUoBSlKAUpSgFKUoBSlKAUpSgIcml6VLeRahLZW73sS7I53jUyKPkT5jyNTMUpQDFRksbKOd7lYVErZOfJSe5VewJ8zUmlAPtX37V8pQClKUB9r5SlAKUpQCvtfKUApSlAKUpQClKUApSlAKUpQH//2Q==;" vertex="1" parent="1">
          <mxGeometry x="260" y="163" width="80.88" height="60" as="geometry" />
        </mxCell>
        <mxCell id="oFOPfkIDdDdgaN84WTpM-14" value="driver" style="rounded=1;whiteSpace=wrap;html=1;" vertex="1" parent="1">
          <mxGeometry x="410" y="142" width="120" height="48" as="geometry" />
        </mxCell>
        <mxCell id="oFOPfkIDdDdgaN84WTpM-15" value="DC motor" style="rounded=1;whiteSpace=wrap;html=1;" vertex="1" parent="1">
          <mxGeometry x="600" y="180" width="120" height="60" as="geometry" />
        </mxCell>
        <mxCell id="oFOPfkIDdDdgaN84WTpM-16" value="pc" style="rounded=1;whiteSpace=wrap;html=1;" vertex="1" parent="1">
          <mxGeometry x="560" y="40" width="120" height="60" as="geometry" />
        </mxCell>
        <mxCell id="oFOPfkIDdDdgaN84WTpM-17" value="cloud" style="ellipse;whiteSpace=wrap;html=1;" vertex="1" parent="1">
          <mxGeometry x="740" y="20" width="120" height="80" as="geometry" />
        </mxCell>
        <mxCell id="oFOPfkIDdDdgaN84WTpM-18" value="reciever" style="text;html=1;align=center;verticalAlign=middle;resizable=0;points=[];autosize=1;strokeColor=none;fillColor=none;" vertex="1" parent="1">
          <mxGeometry x="765" y="208" width="70" height="30" as="geometry" />
        </mxCell>
        <mxCell id="oFOPfkIDdDdgaN84WTpM-19" value="" style="html=1;shadow=0;dashed=0;align=center;verticalAlign=middle;shape=mxgraph.arrows2.arrow;dy=0.6;dx=40;notch=0;" vertex="1" parent="1">
          <mxGeometry x="80" y="80" width="110" height="40" as="geometry" />
        </mxCell>
        <mxCell id="oFOPfkIDdDdgaN84WTpM-20" value="" style="html=1;shadow=0;dashed=0;align=center;verticalAlign=middle;shape=mxgraph.arrows2.arrow;dy=0.6;dx=40;notch=0;" vertex="1" parent="1">
          <mxGeometry x="90" y="148" width="110" height="32" as="geometry" />
        </mxCell>
        <mxCell id="oFOPfkIDdDdgaN84WTpM-21" value="" style="html=1;shadow=0;dashed=0;align=center;verticalAlign=middle;shape=mxgraph.arrows2.arrow;dy=0.6;dx=40;notch=0;" vertex="1" parent="1">
          <mxGeometry x="350" y="133" width="70" height="37" as="geometry" />
        </mxCell>
        <mxCell id="oFOPfkIDdDdgaN84WTpM-22" value="" style="html=1;shadow=0;dashed=0;align=center;verticalAlign=middle;shape=mxgraph.arrows2.arrow;dy=0.6;dx=40;notch=0;" vertex="1" parent="1">
          <mxGeometry x="510" y="170" width="100" height="30" as="geometry" />
        </mxCell>
        <mxCell id="oFOPfkIDdDdgaN84WTpM-23" value="" style="html=1;shadow=0;dashed=0;align=center;verticalAlign=middle;shape=mxgraph.arrows2.arrow;dy=0.6;dx=40;direction=south;notch=0;" vertex="1" parent="1">
          <mxGeometry x="790" y="102" width="20" height="118" as="geometry" />
        </mxCell>
        <mxCell id="oFOPfkIDdDdgaN84WTpM-24" value="" style="html=1;shadow=0;dashed=0;align=center;verticalAlign=middle;shape=mxgraph.arrows2.arrow;dy=0.6;dx=40;notch=0;" vertex="1" parent="1">
          <mxGeometry x="350" y="70" width="210" height="33" as="geometry" />
        </mxCell>
        <mxCell id="oFOPfkIDdDdgaN84WTpM-25" value="" style="html=1;shadow=0;dashed=0;align=center;verticalAlign=middle;shape=mxgraph.arrows2.arrow;dy=0.6;dx=40;notch=0;" vertex="1" parent="1">
          <mxGeometry x="680" y="50" width="60" height="20" as="geometry" />
        </mxCell>
        <mxCell id="oFOPfkIDdDdgaN84WTpM-26" value="" style="shape=image;verticalLabelPosition=bottom;labelBackgroundColor=default;verticalAlign=top;aspect=fixed;imageAspect=0;image=data:image/jpeg,/9j/4AAQSkZJRgABAQAAAQABAAD/2wBDAAsJCQcJCQcJCQkJCwkJCQkJCQsJCwsMCwsLDA0QDBEODQ4MEhkSJRodJR0ZHxwpKRYlNzU2GioyPi0pMBk7IRP/2wBDAQcICAsJCxULCxUsHRkdLCwsLCwsLCwsLCwsLCwsLCwsLCwsLCwsLCwsLCwsLCwsLCwsLCwsLCwsLCwsLCwsLCz/wAARCAC/AL8DASIAAhEBAxEB/8QAHAAAAgIDAQEAAAAAAAAAAAAAAAEFBgMEBwII/8QAQxAAAgEDAwIEBAQDBAgFBQAAAQIDAAQRBRIhEzEGIkFRFGFxgSMykaFCUrEHM3LBFSQlNENigtF1kqKk4WNkc7Tw/8QAGwEBAAIDAQEAAAAAAAAAAAAAAAMEAQIFBgf/xAAvEQACAgEDAgQFBAIDAAAAAAAAAQIDEQQSITFBBRMiUWFxgZHwobHB0RRCIzJS/9oADAMBAAIRAxEAPwDrdKg4ooAozQaBQDooooBUU6VAFFYWurRLiO1eeJbmROpHEzhXdMlcqD3rNQBRSp0AUZoo9KAM0Zo9qKAM0ZooxQBmjNGKMUAZozRiigDNGaKKAdFI0UA6KKRoB0Uqw3MrQW13Oqb2hgmmVCcbiiFguR7/AEoDPUDfeKNH0zUzpt+ZYD0oZUuCu+EiTPDbfMMY74qAsv7UfC8r9HUEubCYFQSyGeHkZyHiG7/01WvG2oaXqWqWtzp15BdQvp8AZ4HDBWEknlbHIOCOD71uoPOGYySn9oc0Es2g3VtPHKkkF0qyQSK6nY6HIKH51BaT4/8AEWm3KWlwY76zRQzC5ciaNThQEl/Nn2zmqpdS3UTQ/DLvLM4dNu4MMDvisNxeR27KXjBucZaNcDpH2ZyN3271NtSXIO9aR4u0DV9kaTm2umwPh7vCMWx2jf8AIflzn5VYa+UJbq5mZS8r4U5QBjhD8qtegf2heJ9FEcEk3x1mpA6N4zOyr7RyZ3D9aicM9AfQlOqn4e8d+HfEEkVrG0ltfvkLbTjO8gbj05F4P3xVrrRprhmR0UqKwB0UqKAdFKigHRSooB0UqKAdFKnQCrHNPb26q080USu6xq0rqil2zhQWOMn0rQ1TW9L0d7Fb95I1vGlVJFQuiGMKSZNvm9R2BqG8YzWt94Xuri1minhWe1cSQurp/eBCCV+vIrKQLLeAtaXqqSGa2nCkEggmNsEEc1yOy8aeILCJoZZBfWxiZDFdkl8FceWYef8AUn7ekba+L/EOhLEttN17Zj0Ta3P4kI3DA2AkEfZhUO08LK394OD/AMN8dvQqKmjXjqYIa4iFzMJYpYtjhQxd9hQgY8wbFbMSR2UbyAh+BudZlXOfRQP/AJrVT4a2K7cz3GRtAHlRj6EYOft+1bltp99f3IjeJ57jJItYjtSFWOd0zjyovy7n+s3C5ZgxPcT3LM1sWihTh55m27cjnkdvkBzUxpHg681bZIyy21pgu1zOpEsxPrHExAC+uT3q26P4StrToXeqMk0yYaCFE220J7/hRnnI/mPP0qfnmO3aoCoM4Ve33qrO1N+k3UTkOteG73SJJyjrd2cRQG6hXaFZgPK6Ekj9x86hBXQfE+1bO+295VBc5OThlrntbQeMNmrJnwyxHiPwt/41pY/W5QV9PV8u+HDjxD4YPtrWln/3UdfUJ9frSx5YQUUcUVEZCiilQDo9KOKKAKPSjiigCijilQDoopUBRf7R1/1PRpP5bqdPn5owf8q5uJpUEio7BJVVZFBO1wpyNy9jj0rqH9oiZ0ayf+TUox8/NDL/ANq5WewqaHQGvOjMvHmBYEo/Zccgjj/Ko+Zb5i0IjNtCE3SO/lXpds5BPHyFSleezK2BuUhlb1Ug5BBFSmDf0LwneXpSUrJa2pGWuJVC3cy//RVshFPoTzV8gt9J0K122kEagNGgOPzSuQoZi3JPqST6VWLPxdfRBYr9Y54FzmRAsUy+u5yPIf0B+dSurtNd6fbS2a9X8S3u0XgGRChIAzxnB4qrYpN4kbLgWqX2ogz3M8bWdkkebVXkjSWdDx15ixzySMc4HYDjnNbSzPaRmbqB0MqSdYKr/huV8+Dj96rd1cap8JA89wpvnm6Svc2fntIIzlWSWVcFuFACrxjuN1al/qFxPClqjSLbouGy3nmYnLPMR3JOSR25qTb6ccEa65NTxLrFtL1LS1xKGG2WbPkHOdsfv8zVSrdvdofGRuHcD0+taZqSUEkbZJLw8ca/4bPtrGmH/wBzHX1H7/WvlvQT/t3w9/4tp3/7CV9SH1+pqCRkKKPaitQFKigEEsAQSuNwBGRnkZFAOilToApU6KAVOilQDooNKgKp4+Xd4fY/yXtq367l/wA65Ec8j9K7J44Tf4b1E4/u5LST6fjIuf3rjbVPX0B4/rQQMGvQ708CpDBgdSUfj8ysB9xViPiS3sND03pgTXCWFohBzsVxGq4P/aoIDn71F3LwfA2UbyDcASY05farMoJ9B9/0rEoqWMjJ4a91PULpr25uCShyzSEiONc8KqjgD5U7vVJJF6cHkGMPIOGb/D7D9605CXUtgJHx040PAxwC2eTWNtp2jsBwOOTnms8DBjpUyCO9KtZPINrTrlbPUNMvHVnW0vbW5ZVIDMsUqyEAnjJxX0nZeJdEvJEt/iYobp1VxDK6g+YZChvy5+Wa+YqkpdRuJyscAMYYAE582Tx39qgxk2XPB9SUVyCDx5c6VFZW9oOvbW0MEc735b8UqgViuDkc+v7VbrXx7ol7od/qyb7eW2EkSwXGDvudo2LGw7gkj0H04pGMpY46mZrZnvgXiDxa1qb200tRJc2++OaU87ZF4KRr7j1Py+9cyj8U6/FfdSCZzdM+WWPPUkJPY4yxP1zWGWS8klgkikJ6k5kuJAwyV/Mefma3xcM6mOQvtYjc0R2SFfVSw5wfWvZ0aOuqGyK+fxPG3aqbn5li3eyzjb+fcvumeOCzrBqFu8hUfjXFqo2wtj8koztLf4T9quFpe2V9H1bWeOVPXafMv+JTyP0rg99b3dxtOnPG8MYEYgV1jERA5G1uPrUhoEGs2G+V7iSFjjpiOUkxkck7l9/aqWp8Lqm26/T+xao8SnVWnOSl8P8Ab8+a+p3CnUR4fvp7/T1kuH3zxSyQyNgAttwVJA+RqXrzVkHXJwfY9HXNWRU13CiilWhuOiiigIDxgobw1rg9ooX/APLPG1cTznP7V3LxOm/w9r6//YzN/wCUBv8AKuGHgZqevoYGK9f5VgeVIwzO2AM/f6VjiujKT+GQPQn1xUnQyk2bfz+9VefiaceglkH/AKjVjEyHPIzjgfSq7c/7xcH3lc/qc1lMweQWbAJ4UAD07U+O2fc5Of2ryOxyffHzqU0jRp9YuktUmit2lDpA8wyjXGNyRSEHK7uwJH9aw+DJHRxPPIET3G52ztRSQC74BIA9eKkrvw9qlndNYzIi3YRZIlLr07qJuVktpDhSD6f/AMKt1poxk0K9gfTZbHVNPuHlsJ5TFE6TKwE0csp5eI4JUkce5HNRWp3LXMFnBr5ubDULOMw2MqRmaykg/PyIyQBnsULD5VA5t8I3jGOfUyoyRSwytFNG8ciMFkSRSrKfYqcGrINGlv1nXSrCRYVLFd3nuJnA3bEBOe3YfuTW1b3en6h8NY+IY1a0ZNlnqcDA3Ft/CG6mPPGD3UjIz6YwJU3jweaCaNbZZCgmRg0coGVDbjxVacm2sHY0WmW2e7HK4f7lLvrTUI576FrS8t4bR9zwXZO+BWAKq7MAMkduKsOkeG9X1OF4Y4WsbeJwJZr7cB1MKx6aDknGMngD39K3kjgupTJqU3Vidg8AUgDaM9Q4QEb248xB/wC100prObS0TTd6w20Zh2MyTPGpYr/rCEEMrZyeOc+lSV3TTzHqinq9H/jpZ5z9ipv4RmtWMVlqbXNwihpIZYltkbgk9Nm3J6Huw+prQZJYJvh7mKW3uV/4c6bGPzX0+npV6kV4YjFKkdvAGWGMJiRZhkyK2WAIJHl5YYIAXP8AF6SxfVIQJ7dJrAx72+KVnj5d26ltIxEgyCuSSD6Y4wOlX4nqK3zLKOJdoabuq5KFYW4gCxiQsxkd3c8EsTzxU8rHHrwPX2FVTXJ47LWtUitHfoK9sibmJL/hx7mY+55JNe77UpVsMK5VleE45/E7+UsDn5/avQyuVlSsS7ZwcGejlC7Ennc+p17wYyPZagUdWHxa5KkEZ6S+1WiuHeEvF9hoF1cSXVkvT1G0hkLQtPEVkQsoVUmdoyCQS7ZXk9uMHpnhPW9V1uG8lvY7UJA8aI8G5GZ3BcqYyzcAYwcjPtxXk7pOybn7npaq1VBQT6FmpU+KVQko6KDSJABJOAASSewA96A0NaTfo2uJx5tNvgM+/Ravn25uYYFw5G4gEID5jx7V2PxB4ptYoLuzsQk8jwyxSytzCoZSpCj1P7fWuI3emHLPA5PqUkOW+zGtY6iEXtydevwfV2U+coce3f7GrJPJMgZQhYswYHkqPQAN/WsTPdx7XeQgZAADY7c4AFYHjkjO2RGU8/mGP0pBd2eVGBnzHGfoe1WlLPQ5csxeGsHt55HkMmSCTkbSeK9COe4kURxvLJIGcJEpdyFBLHauT6E1gqf0Wd9KjtNbYxSRRamLYRxSBL+GRIxMs0RIxtOSCDkHGCOc08zCNEssy6X4dlvtP1HUIpYJGsYjcvDIdsM9qEzKElJGJE7lTzyMZq3aW+la7caDdwS/7Q0+GW3vldunc3SCPMInjAw23nzA88ZFR1yZjfyeItFaOPQr6VJdSghtjIlsrcOtzZSn8rEEhgduScEYrZ0SfSXuPi9MkNk8kqy32myHcDIQVWaymxuKDnKk5XPtVayzJbhQ3Hd2LHdwPJ1PidwtNro5jLNE2/cF68TDII4G8H+LGB3XUlhhCSwTRW62ruCba6VZbZW6buTIpAdSSD/CST6jNZtS8UGydVlsre5yAS5Z4pM/Mx8H9KjIvFtl1DNDolus+ZCGnuJ5EVpMF2WPIXJwM+9Swpt27scFJ2Q3bc8kbq/h6y03SL7Ukjltod8Q+BmkWZDcFkXfA2SwHLBgSeB9MVu81K4u47N7loo4oo40hhtohFEiqPREGM+5NWbX9U1DVtPveq2+QpHHBFCgCLulXKRRqO5qpiCTdplhZ299LqMrPFcwTiJojNu8q22zkAD82Tx8sVlYhL19SbdOVeF0M1tcXduQ0MmAcnaeVbI4yp4qYtru9iX4qCZ4JnX80LshzuORlearF3cTRSS24CrJE7xSskiyLuUlT03QlSPY5qf0y3nOn2z3JFvB0w/Udgd8ZJ2lQM8n51NCt3TUa1lmlmqVNT82WI/z8PiTVp4s8TmaKGS+6keFVt8cBZh7ElM1eBfTT2mZJGYlM8njOPYcVzAjR5pNtleSQXJAWMyIWjLA98tk1Zra8uoLa5huHExgZkikhTZ14git1NjHI9cj5frJrNFZV6scfApafWVWvbym+z4f58iia+WbWtS2AsWmiUBQSSdiAACpGLSpLy31WC8juraay0+9vEDpsxcWcfVMMiyDPIJ7EY71i1G0gn07W9RmE8V1BqlnGAJFaKWG6hnKFoyMgjZjOfXtxmpx727udfe0eVmt5vCMssSHB2tN4fV2we/JHv8A1reWtaq8qK7JMsvTxlJTk+nQrmqSmTw74LdiXaP/AE1bEyHcQsc8TqoPsN3FXr+z6+s9Mnv+os7LeQQNJJGrSvvQ53yY82PMa51Pc28ug6LZBn+Jtr/VpiuzK9GeO22+bPfKt6VbvCtldahDcm0u44J47KFQzNKMGUEBvwhngrVGWVBk1e1y9XQ7XBcW1ynUt5UkT1KHJB9mHcH6istc0jfV7KCJLi736uJwkMlox6jQgAFpP+U+mf0q7aFdajd2kj3wQyJL00dE270Cg5PpnOQcVVjanLa+pat0rhUrU+H9zbvtQstOh611KFByI0HMkjeyLVS13WnlXoSK+xlVhbxu6q27zAOU8zf0+VWXVdKj1BcttZgm0K/bvngjkGqpcW+uaWV+EWJ2jUoq3C7ZunndhJV4IqG9z6LhFnRQpe1p+v4vHywyvyCzuLa+dYHtpLWB53Lu3S2A48wlGRn05/8Aii311Mm5VzEg5DNndL/hK8Afer9NDr/iFprO5ljhjmJt2ijbY7vt3Yd5OeB29PkapXiPR9RsdSv7YWUttptvKskSdRniSIqAAHdiSxwSB35zjFZ08a/+0jp63VayleRCXXnh5a+vsa2n3yyx3a3M1uAiqwiuIjILoZxtC4K7hxjt9RjlzafpF2M2Mvw0ucFJi72zn2RzmRT8myPmK1L2BLEyQyQSW9yViLwTqGZUlRZVJOeDgg4Pv6V60q8+ElmlkhWcSxdNYXX8xLAhup+Zce4Oatyrx6q3z7djm16yNzVerjlf+v8AZfU1LqwvrB1S6gaMuN0ZO1kkX+ZHUlSPoTU74YebZqEMtslzp87QfEQ3WFtiFJ3urBeoJAPyFWGPXI4pWN7cXU4skiV/iZHEdtcFXhd+TsIlxhvTIIPzGank6UCm3EKpFGDEI0zhAOCuTyfvXR8O0/8AlTcLuEufmcXxy2GgqjdpZblJtLPVfNGjHqmnabcQSWT3aS24MUUwk3t0c/3LrINrR+6lcfIHmthEt21S31XToI4NPnGZokfCRTspVyit2UtyACcZx2Fasui2ErNLHJckDzdGN41J+QZxn96Vy5sYrVTCjMuTbw8tBBj15/M/uTXfu8NouWHHGOjR57T+K2VyXkzcnLqpd/6+nH7HjXbnMzZ9PY1CxXQ3YAJ/f+lSkVwmrXCW15bxuJA+yWEbJI8AnPl4x9a0rzTxpjFkdLqLLCWPDJJGOMbmQjP2P6ZqjbpJ1VenlI6FWrhK3ZYtsn26r7/2bsOo3aGOeCNxHFJ02n2rsVyMFU3kAnB5HPf9dkXEepQmOBhbzopjjkhMcMRUgqzyMMnABKiONRknPOahSb3XZ+lDCpCRxRxs+UitYlP5Y0j/AA1B9gCfqTmpaBtL0iOSBbm4e4cIs08Cr5ShyBGH4x71z6vDpauW/ovf86nSfi8dJF0Y3Z5wuv1fZfiPCaNo+nOs17K0vAMcLKPOR/Gy54HsCfr7DbM8d9G9vHIZVX8RU2JFcRgdto/umA7YwKxzxLqUaT9SRlI6RntUG/j+GWBj+4P2rcstNgsWL9WWaXbsV5SPIn8qqK9Tp9NDTrZWuO77s8drNYrP+W1+vskuF+fPPuadrosRkW4knkZcn8MQ9Bic8hxk/tUrdK8lvOqrufpl0XgZZPOASffFZd3fn5VluILiztre7mjAW5uBaxK5w4LxSSCTafTy/vWbpVwjtlxnj5nOhZqNXcprnbz8kVqZJ20PxQ0pDyPc+G532A7F/wB9hAXOTgcVo3mos97Y3do80TQaLpumSygDIf4EWcm0qexGR3r3cuGnhgkldIJYUeYBsKxgd2Ut9MnH1rFpmn6lrAaytIz0kmMss7htsa/w5b39gMk14uTjBOUj6PXXKx7YmCGOWO5eyt1a4lmiSBCibmVnGH2gfL5+lXnQNCtdPh1GC6mllvZEiicQJLCsajLI0UrqCTzyftz3ra0XRLaCO0TTVv0vmkPWlkjSOeQqcNGUbcAh79x8ya6JpeixWeJ7jbLdMdxJ8yxk+xPc/P8ASufO2d7xHhHVcKtEsy5n+xGaJ4ZigVZrlSM4YISeo/8A+Q9wPlVrVVUBVACqAAFAAAHoAKOKOKlhWoLCOddfO+W+bywrxJFFMpSVFdT6MM/pXqmK3ICv3+gCQM1sck/wORn/AKWPB+Wf1qpy6VNFcs98jXJjdDGkgMWyME7xhBgMeMPj9O9dMrDPbW9wu2aNXA/KSPMvzU96gnTGXJeo11tKcU+GcU1/S9Cu9UlvrcXbSz7F+G6gkHXA2BmZVzxgAKM5xkkZ5rmrWsmlwaeszRyS3dvLMiAYFuqymJULq3JwMnGMZxzXbL7w1GZDcQKruFdQcYmCupVlyuM8fQ1V9bs7y9NhDcW0Mptz04bi5jjkkt1KkZcFVY47Llj+vI1jOyp5lyi+1ptXCNNKUH3bf5/ZyaGJztl6xWdPOqN5CFHIKk8fTtV8trae8huJoEZlgl6MvY+fprL5cHthhXrWtCZ9AENjdQGdtS+Lvop90VwQkTRq0ruMFVBLZJUDJ7k+bHpGu2uh3dxpN/G7JdSWkguLfL7JuhHF/dkBipwMEDPy9u1odVOFcp1rL44+B5rxPw6NlkYTzt5w+nPBiIZSQwIIPrwc16YpKnTuI0lj9Q6gn9696nqQutS1RYYgsVreafYw9aJ4mkEjCN5XVgH5JyM+gFb95o13blig6ickY74r0NOvrnGO54cux4+/w26uUnBZUX1X3ISR7a1EkdnDHCGHnZECsflxzUBdyl5Y4txXeSCfUD1NS10+0yH1yfsarskh+Lib2df61dvs2Q4L3h1WW5vqWTTrgWsccUSr0R6AAMT/ADFh616l0e0upOrFczRbjuMeEbB91JrSglXqSKQMBgRtGMAgVKRSgFD6D1FbcY244KF7spsc63hs2ra3hs4RDDnAJLOxyzMe5JrOiySMqIrO7HCqoySay2tpc3j7YIywBG5jwig+rMeK96bqsNjeNa3UaqZjeWySW6PLJ8RbSmPpIQMkOO3A7c8dquq1caIS28yXYraTQ2ayxSs4Un1/UZL6VqFnHPbic9G2uZEgDTSIkszQsQijugG717Vq+Ktbtbm/0vSbeN/wJzczzybkZpHhaNECEZ4Bz/1DgYrRl1y51DWNWns5DamG0Wxs5YiN6wq7gy7myNx3Mcj347ZrX0nS76R2djG0PU3R3bKHkcA5bphuDn1Y8D5ng8W2cYyhqtU8cfrz/B7HRaJvzdLpV7ZzxhNLnPzNTTtDu9VhS+vI7tLSFIhEkKR9W5j7PsMrAD6nI9gSK6HpWjGWRIdMS4gt44hG6NIyW8YYAs0qLnLn18xP0FSGjaBPcKJJXnjs2frDqSSSMzEYIg6uSF+Z+3uLlDBBbxpDBGscaDyqvb6n1z715lqV8t0+h6ieohpo+XR17s17DTbWwj2xDdIwAlmcDe+PT5D2ArepUZqwkksI5MpOTywp0s0ZrJgDQKKBQBRRRzQBWtc2drdKBNGCw/K68OPvWxT9KDoUzWfCnxETCNpSg5HQYgjByC0Wdpx9KoGueG5vxZreLfNhVHWfJAGB+c4BPtnH1NdxrUu9Os7sHegWQj86ABvuOxrNU50Scqnhssyu82Ear+Yp5XJwmabV49Pngvbl5Z7JY5IDKqmeJldWCM5G8hcDbnPy4qUg8Sa9rmj6hZQwWjau22Ndkqwzy2580kkUDjaWxx5W9ScCrlq/hZdpZog8aDyyxBgyfPy+ZftkVQ7/AMLzrO90jTTrgGFECrIpxwyFMKcd+MH5e92WopuhGuS2yXT2+5XhpZxlOyEtyfOO/wAkiL1F9sk4x/E3Hsar0m4v1MeVWGSe2R6D51cDo9zdzv1EZAOiFhfckrGQYUygAsqnHcjP071GX8NvnoxJGyKihdhOyJu5CHAOe4PcHv3rp+IeJVxSri8si8I8Ivsr3bcGjDP+Kxz32f0AqZt3LbeQAeMk8fU4qHitI8sjCUOMFZIvPtz2Dx+o+4+9b8Qnhi3SYMOcfERZeIH2k43KfkQKuabxCq3jOH8Tn+JeFXVLdtzj25LvaeI7HT9JuJrqOWSTT7uS2SKCMolwwIaNhIRt8wPPc8HiqrHeXlzpsjQTpbSXlzdSyyqAJT1JWbopIfMFbPOMZ9eOC7yHU9RvLUR3HX6arHDagKIFt1AywUAKFP8AExOeftVo0fw/NJNHtQT3YA84BSC2U/yZHA+eMn0A9eNbdVpHYpLM5Pp+q5OjpdHPUV02tqNce/d4WGsfz7e5D6Vo1xItuLyIFiRi2jRg88hPBmC+b6ID9cdj0zSfDqRCOe+VS42mO2G3YgX8vU28HHoBwPnUhpmj2mnKGAElyVw0zDGAe6xr6D+vrUpzXJm7LpeZe8s6Fl8IR8rTR2x/cAMU6XNHNbFIdFLmjmgCnS5o5oANAooFAFFFFAKnSp0AqdKnQBUdd6TZ3W5goikPJZANrH/mXtUjRWGk+plNxeUc61jwo6tLOpeN33b5ULNHIW77+dwzVU/0FKk7xTpgbQ0bZwrhSCwU++Owrt+AQQcEHgg+tRd5otncq2xVjY+mMxn/AKfT7VXdOJKUex3qfGrvJlp7Xw1jPdHFbpdQW5CW8MmxCAnSTykfIj/Opj4K4KWRVSt+4xKqY5iIORKMYx9as994eubdy8cskO4hTt86sM/wN3z7VNaT4djiUSXSHB82xjmSQ/zTN3+36+1aOU5Zgs/UnjdRQo35Tx2S69sP4fcitG0B50UiGG3iYg3E0MWwTMvACKc5x29h7VdLW1trOJYbeMIg5PqzN6s7HkmswAUBVACgAKBwABxgAU+asQgo89WcK/USull8L2HRS5o5qQrDopZo5oB0UuaOaAdFLmjmgCgUUYoAooooBUU6KAVOiigCiiigFRTooBU6KKAdFLmjmgHRS5o5oAp0uaOaAdFLmjmgHRS5o5oD/9k=;" vertex="1" parent="1">
          <mxGeometry x="480" y="190" width="91" height="91" as="geometry" />
        </mxCell>
        <mxCell id="oFOPfkIDdDdgaN84WTpM-27" value="" style="shape=image;verticalLabelPosition=bottom;labelBackgroundColor=default;verticalAlign=top;aspect=fixed;imageAspect=0;image=data:image/jpeg,/9j/4AAQSkZJRgABAQAAAQABAAD/2wBDAAsJCQcJCQcJCQkJCwkJCQkJCQsJCwsMCwsLDA0QDBEODQ4MEhkSJRodJR0ZHxwpKRYlNzU2GioyPi0pMBk7IRP/2wBDAQcICAsJCxULCxUsHRkdLCwsLCwsLCwsLCwsLCwsLCwsLCwsLCwsLCwsLCwsLCwsLCwsLCwsLCwsLCwsLCwsLCz/wAARCAC0AOwDASIAAhEBAxEB/8QAGwAAAgMBAQEAAAAAAAAAAAAAAwQBAgUABgf/xAA6EAACAgEDAwMBBQYFBQADAAABAgMRBAASIRMxQQUiUWEUIzJxgQZCkaGxwVJi0eHwFSQzQ3I0ZPH/xAAaAQACAwEBAAAAAAAAAAAAAAABAwACBQQG/8QAKhEAAgICAgIBAwQCAwAAAAAAAAECEQMhEjEEQVEFImETIzJxgfAUM6H/2gAMAwEAAhEDEQA/ANaRciZIp55CkRDdJQKfYv7zD5OppJIkUIHQEH3HliPPHOqjMgeYFVLge0X7QQO9g65Z4jItxsgRifuq7/W9eJbFplpZCVRFXlVptt2T8EausDlnLWBtoAGiCR2rVoWhjMsoYMGbdbEFrPxeokzhbiNdxDC2A7183pbf5CRMhURGRiFAFAmxQ5IGhzSQvJI+OWMbV7mNkLVHtxouQIJumZCCjxLJRvagJIKkaURKuJQoQt7VAJQgfTTFBfIG2hmOILTo5IYEC/wm/N6G5WNpYmZnlWmCiiqt/mI8aaLt0XgCxRqFDqK9wH++l+i+1pHKAooUAH8IrsdXaj6JZZDsVWAomyASBxX8dVlbHVowzNvbawYj2gnQplbarKu+U7dpjUk0DVV40VVkVW6/EtbgjAFdo7EH51OKRCj5D+6EOuxR3ut/6aWZS43WAwBpmPFAXerNGZJoyEe9oN1YF+ONPpEvTkLqWNDggcAHwPnSbt0QzUhnkjEZ5UuPB5JHBB1Z8OWFSpjtA177B97cV8/lpiDqxlizorqR04R7nb61qhklk6hSNi1jeHXsL/EB2vUug0TDEMUwzFDLJtKqp5UAgjcwHn40KXFrqkJ1JSvJJHHngaPkTSxrBSkU5YWbPxbHXSZKUFMKyO6AjmiTfnVnkvRK9GdjvJGruxZm2kNQraD3AOrwzLkOd+4FQCqtRLcduPjQimTIJNiKiSMBtLkkm+5A7DVkxJIAJA1TxOa5+7YLXk8ao99gHRAisSJVjjVTYI97E1QF8aaTIhjKdCwhYK0j8bWrkXdc6AY3yXSYbleRz1FVfZb+0BF7caIcTALhpZlki9igY7lSGQ0ysK4Pbxp1OqJTqy00xWkVmZ9jkEcFv3uK0KKeRgQ0jAsdoZu1nkdudM/ZIpJYpI5X2JK9hq444FjXZEOHGQtkhV38d1PYaq41uwFHEglR3kVlO4MB9BYJ0rKZWkUKhCSEh5L4rVxGJCV6pAKg0poq583o7FADGoBKKhF9iAedUtFv7L4uNE7FAU3KvLSMFAU+QfnXbI4DKsYO8di10GvzeoiDSowYKtm1J71dV/pqMvqwgQxm2KjeSLo97JOpySQXVC8kDTEEk7lIKsWta5IFDRI4I0XfIQHj9xRDwd3Y6hTl3GbjACCN1Ui6Pk/XR4AiS0w6ljcRI1hAq99DmroAB5UCSsVdOowiRmJFk9u/jVoZpVjUK8ZHe3Fk6jP+zyLEjPuCgBP8N9rHjQ1xnKqA8ZCgAHeBY+o0xNAF1iFglqezQbyOwrTEcYXibaZPJF8j5rRlfEcxFVpbJNrbbhzW46HNJEWblVtjsNjcQfnVbiAYGPB7GJAUU4JPYeb0EuheWSOjvICqoABA+dQzSsixptZGUKxB/EBoIVYiWuQPtIijVV9zX5YnQu30EkPIYwxQp72FMdw23e3TmOJJmuJVQKu8VRbkd9AWV8gEmJV6ZZSp4JIHnVYnmSRj2VSthPxKD32+dHfohM0/3tMjWhKHdW6xzzokLSUzOQHZl2Cx7V29yNWTJxZY5oY4WZxJ+KZAHHN7gQe586gSCLqvUXsB3ttLEAiuL1FaeyM4ZC4gvb1SW3kLd18cC/rpaeUSyAx9YGvuzKw9q9+wNXqBkHbJ0wGjRQSfI+pOuforGklFpZGDG+27tXGi5JogMMSATIVezQDEUPk6bhzmMbRMi2o2M1e5r4Js6TZk+8KJuZXCFRwBZ1Gxt8fFAOF79ub3aWqj7AjTHRY48nG6PcxJoE0u3YCNXWRT07ZVcA8R+R35vydZZ2OZUD3cm/yNoHgVpoSlCsiov4qPlgO3AGj+oukMsFmtISGJZQTf1APb+Gk0DOUYKXjVmSS7BquGF613EUyu86yERAhOmdhDVwQe38tKQfZxHIHB27lYs26ySfk6px4vsDXsGggorGrR+/lrJriuL1QRsZJrQTxkFWLWA1kAkDTZmxgJY0iVSylQxAZgT/hvjSsrWS0IkRQqBgxH/kAB51HL4APxxRuEVZ3T3KQLrbQoAEc6LkRDoqgHETBC1UQoHg+fz0ir7dqOjNN7G2svtBPuskdvnVjmPteNgRvsgnv38X86Yp0qkDYxC0u3pw2WBUlnBCV5OunBDSQubBAJKjkij2Olopp23OllApr/ACKDtvTAglcgtIoRjyb9wHFd9Mk1QKEomx8eV15a9p5sjd2rVps3fSLEqgN+KjuYcXz8aaMeEsk7qrEKjCInuxU81oZWDaKC7jZbcaI3GzXGueTdBBLkO22M0EDkAL+8bHc6YjigPvleSUhzIvJCnuArV3rS/wBogRgYVVdpNbh8+2udVMmQA5jU7FLMSORvPftqJ6JRPXBkagwY0UEYNFrPe9DJzpW2MoQKyi+QXvub+NXiGZvayqIi2XIHPzWmetiDpsVbapADg2pHx/fVNhSFJ0KxE7haq6kDkctxV6ogz9q+1iKG00eR4PGtGP8A6fJIOqbdwyptBrlhyfH5aIMqOO4yx9hKqAt0o7DV020BoyZsicWsS2bF13UdtUhws/LlPTXbGAfe5HDDxXxplF+7Jl2wylwIgKt/d3Om9kjGBpH2rIEsI6+xfBKodNjFIFAejJCyp1levwiHk9ub0RWyiq7RbF6BoGvA1Ma9IrIWZLtFNbt3PjS82ayCRRNYLINrLQIVr4oarLstQQwzdWZOrcm/7wnt3vbqJmWEAOAZN+xCOLX6/Oqo+TP1mG+P38FQLYmrJvnt21JSwDJRdfwJfII+TqvH4AVaeILGYwd10T2/PjVXaYKFId1fnaKP151yyRnfGfa249gOf46MDIkZ4vbQF3zd9idBqT2RUKrFKhIVFUEWbHsLN+7WmY8dgyRPbMyDaO97rsr+WlZvX/SfSWZcw9ecUYsTHAknckXZF0o+rV+uvL53rfrXrHVEci4GLXMGK56zKeyy5P4vzCga0vE+mZs6tKl+SNpHpTJEs/Rjy/T0yOp0ulLPAsm08E7Ha7/TRUIBkUmzE5rd3B7A1/bXhE2Q3DDCixlOm/UjSSyQNzcj+B7/AF1r+neoZ2KdkJVoIwbjy2Lxgf5GHvX6USPprvz/AEJqP7crYr9aKdM9MXVJI9yMFI3UFvca8kdtQokDdVbUB+SST+p0tier+nzgqGdMx2AEUlKz3x90/wCBh9LB+mmg+QsUnIUF72NwwN1WsLN488EuM1THKV7Q8k8b7YmJsMVO4UardbaWzHRQvTPABaMA7ueO/wBPjS7uqW0oLG6c7uGY+dH6EbRPMhkLNa2aqq7AfTSrbsJnoZAzSM23kmr7/HOiCWUrGFJK3RLVz+mrCEJGVb8YAHuqhZvtqpVIQrUWClu/fk3a6qmrIx+MbATPJalAGB4YtYqj9NCIWeVfaoVaCGuzXxoBkaRomIO1qIW+B9b0UDIUstOEJ3rVGie1atKS9FRqEMm6A7U4kUnbzQPOrvsJYR7m96B//i7B50ERymNnJt3CNQPNknvenIpoYYsdnXezpvYGgQNxWr0bb7CmVnQKsaLKihX3puHKkiiCRrKfJR5QzAk/hPFAbeL04AJaBJLytIQSQNi+OPodWkxojuLKBtjG+he49hX56j2RsRADKZVINll9wsCjwdGZcihQBRUXrLFwpuwGIGhRqSrpGhAZgwUcNtrnWimQIYYERCZGVe60BGv+Y6MH8gEA8w345jKLRNyWDv8AhR2rQljfpilZjvbtyvbjjTUzyzS7TtUmQBXbkgHigO2ip7Inxz7TQHWI5aj3WtX7DQKh9ngkZdjxErXG0huAdKynNikdVnhN0xscgsAa02YD9miDOel1lCWKJYgkkk/lqFOJIN00as5sEuSDQ4A41HSRAM6f+ENGXMRe5FYncb4IA8aCk5g6irDtaVgd1Cz+nzpMj1ByWDSgLJtVVBsg+eNaC4rK2PLJKXZQCyyk7r5rvq/6dqivosuay2JIY5SN4tiwKg89rrQ44RMAysxcm1B7Ffr9NEfByZ2pzGE3KTISADYu/wBPOmVeMCNY0RSh6aSAHt/t31dY6eyXfYUyRx7UYkSRpciUbL3waGkZ+ssrmNjLIZLUILVSRxuPwNGKPFPkOj7z1aeRzd7q/AD40v6vB65J6dA/pOSGEyrkeorgsj5ceMyKYikSgy8e7eRyPC17tdnj+O88uMSLYnkZuDgf/mTE5Eigrjxp1Mp+OdkINgH5YgfXWB6j6563lgwRE4GKm5QkLq+UwPcvMBtF/wCUfrpSJseIOYogZmcs+RMWdibBshudwIJBJPxWguOS5JJJLE9u5vivGvR+P9NxYnyltgb+C0OLCsQdbDs/u2sLPNAtY3XfJJJ06ixR7gdwk288n3D6caDjSQ7T1OmpHkcFuOOO/wDPTbmKUApukIBkZU5Ari2oa1uKSpGbllPlsiJUkkCtShhRF0p8gE99MvhNEJHAPIVUZkIViRyAPpqsCuihvu425NyRlj3r2qTf89EnyWB9q3Ia2bTRIA5J3Eiu+lxTukIlK9mY2LM0igqGjV97oy2pHNWD31rYvqM2OoUOs8SgEwZL+0ID/wCuUW4I8A7h/l10om6UcZBTrJvDAEsgZbsgfGqLhxbz0SoY/hVI433mvBJB5/PQzrD5EeORWCGacHaZrj1T03LZQisk5NdGYp+Ic3G6Eo36G/oNejwvRpZoIpMud4QygpDGB1Arc/eFuAT8VrwOH6dL6j1sXGxTI978i4wY4uSKbfSg964vj6caS+t/tF+zx2zb/UvTInEFvKWyMdgdhXqm2AsUA4I8BvGvPT+j4Y5Ljv8ADN3xMkcm8i18m76p6Z9igkmimaSFSOpuUdRATwzbeCPngayo45CAzMOATQ5DC+NOy/tR6P6n6dlfY5JBluiIcPITp5J3OoYoASrAC+VY/pofomLH6pNG7iRMaNGeYK1M5B2dO/Fn+n8MXyvD4ZlCCqzqzQi5pYvYBXKOwZkCWNq1zz3/AFGnVAcXu4UrXzxyQRr0U/p3ozoEOFAKACsi7XFCrDjm9Y7Yi4rdItvXlkkYAUpNAtXFjzpebwpYVb2Uy+PPFHkwQZlYyFCFWJYwD+617ySNByGMpUxkD3Bj2rZYYMB9dWydnUjTfuduAd3F3QLeOfGnGxYup0ndV9gWQ2BSILPHzrlpvRziHU6jylFIUFuk3Ybh4/LTCGdJJCdrKCqX3PPg6LNDEkKIhc75KK8AqAKJNfnqkThRLGASPYpABLObrivjVXBphK5EE0cz7xVwO1A90HNGv66XM0rrLJ0qWBEjO21AB4r/AF0/IMk9dBFJuKxwkH3Agm9v5fOhrHFjY+VulLNM+8KzCkDAAICfF3qyg+2TRnxpLMkoKClXceTuYA2K1aGeadh0GBSEtGvsrczgWttwa01iIQ8wy/ZCYQkW4G98lt7m0PpEQNBhKVZAjWOSzO34jxY/21aK2CwMmROZHWgz9QxgkbUO0dlvjUI0hFkIOTQLCx5rRZ8PIiiWNnWV3kXqlvcqkc7oj8k8aVZemzK0qhgQSCgsEgHQlFeyWaEnUDQmOQogC7iwG4tZ+NVYSyNISwkVWPv7HtZHOlWyVAUuCFcKQxHK1wNTDnpG6xkbo2VipawOfJ097WgJDYkGLGZLB3nYQwNKrcXzoLZMYKwoFkIJobCFO2yb/hpSSSeVo0DWu9ASx7kG/cP6aJkZEWIGHtvluAffITRJ/Lxpb+3sgPInkG1gw21X0J70a1gz+leoR5Efqvpk5x80uzKsT7Q72Sdl8V5o8f01soHzAqxh42jIdiV9pV7o/XTLRFEAMqXGCzFV7oFINX2Om4vInglyi9lkzAb1f071JjiftNjvgepL7P8AqmKlB3//AG4DQN/PB+oGh5XofqeKEaKNczDmeNYMrCqaBjIaWyPet+bA/M+deb03Gz0eOdY5PaphZeHRW8bjrMXC/an9mcgP6PLLk48jBWxNrOzFzWxoRzZ+R+tdtel8P6tDL9k9P/wjipC02AMTMycdtx6T194FG/gGxtG2v5aTmmmXIkMTKmyo+AtChRJ8a+oxenyZuLjzepYeLiZZUM8Frk9InwWUBb+aJGgZH7PYzSrkS4GJkFdv3kcalto45Xgn+etmPk4/7KvxMq2+jwwxPVJIYZWimWGWLqrNJtjjKkD3gseB+n186rccdKimaU7ktiekqixcS1beDZ/h5163P9Ows190wyFMcYjVYpDEQFO7aqH2AntyP9sFv2f9QlVZFfExm2vthDTSlP8ACsk55Zj+8aodgK0IfcuUtHJk8Zxf2Gac6ZYkXIaUzKlLLvHVNDgk3wf11qfs96U3qUOXM+UWOI0axY2MzR5LtIAakYX93fANdweV8gm/Z31SLHDI0ORkNIEMcZ2hEIPv3zFQfyrz9Nano3oaen9DLymL+oI7OnTlkEUQ/dX2bd3+a+P4WbZI3FqL7KYPH45OU42DeGHBwc71T015RhJLj4uVFmJEFyJieFSOOTcdjGv3G7kWL1l5X7R5uVhfYBg42NjzR9Oc4+9pslS4Ji6j/hUke7atmu4769VLjQ5X2Y5rzZU0CttmmkfcWflmpSACfp447DSD+jY9MUeTcoY46KFUCRuea5N6rGMV2jrcZx1Dr4PFfY5lZAYTtkckgNYQk+3buJIrxzevS+h+resYJfH3RZCSbRE2YHj3MhNQnNAqzZ27geeL+NT039nSC03qYVt/bGux3u5WHH6Dj6nsNnMyMbBVXkMkjCLamEjDpyDxuRgVUfXz8GuBl4ZPtasmBTxvm3R2H6qM5zBJj5OJlqCWxstNkpA7mJh7GH1Un9NZfqPqca5ufhnnpJFHZut4UOe3kE/y1hiLIyWaB9zxNIZI8dTIRE26x0SDuBHgg6O8GZDkdaSCbMEth/tD9LIYrVjquOmx/wDoKT/j1keb4MpR4wZ35PMefHTVUOw5EjtcpBauooQDcAAFBs8f/wB06cpDIkm7l1kWnWxTCm50T0Q4OZlhC6scdDK+PMOnkqLoI8D+7aPkbl47m9eqyRHPE8cqK0TLtIIrg8e2ux+NYkfBlJO9FcWCWRWjySSybqBVTt6ZUe5jZ42/11ZZpYmllCsQqAsaBC87eAOedK5USpPlqsrdRD01rgWjVuOoinkCQpdq0qMxVRTJ2IJ7+dZjtXZztU6HR6hIsjjcQFPvA73YINHS2Tub7vYSAzupYe0gmxz8jXZGR1AeruCKw6bUtgEkAMfI41b7Wrp03v7vcTuq9hA5F6X/AGwFmyoJYoopmkBZYyVj5vaQPd4rRLkx5CqBl6ijaqsbtufd9DocmPiQRowvoQpA00m6wA1Gxf56cM0ckUcgtJY16aiiKWxVn5+NXarslGa+bO5eCRK9v46NK5buK8aYng9RDqY8YMjRxsrAoQbUcgtpNzBDI43SSSO7ly5oKBxS/I0wrZCJGiyvtVAFEhNgfT6aq2k9gFZMV5ds3VQdEHcCaPSU+QNIzKVQsF3RiubFX5I+mtCVcjdZXp+0brr8J4OhNj7WjWOVWDNvZWUFCpPCrrrbTJQNHyIxIAjcqQGPIKkVxqVjyHQlWRVVd7tOVoHwFL9yfA1YR5KnI3AGMMEDA/hTgk121YwGdTI9miO52rtC1YA+NKmmnssqIkeSBI2C72K+7a3uA+L7XoTRKsLTKH3zKu4zk7E3cFgBq53qREhDKFAeRewsWGr+ujSx4/QbpsQDQeNze6+bAP10EtWTQWHHjdUDyELNsFxjaAFoEJpvBkhgzppZ7jZQUg6vZSy7Q5ftz2Gsh5Zoo41JHLCqNBaokL9dEimlkSXqqSqgVHIaY+QxH00yElF3RaEuMrR66PIUd6N9zpmCdTtC1WvJReoxIxx5XAACbJF7KD+49f8AP7bmO5UDn+HxraxeSppUbuOcc0eSNTKxMbIU7lAeuHX8Q/XWBPBJjuY37d1YDhh8jW3Dk8gHgHgcGz/HU5MEWShQk97UgC1PyNaWDyOL30cubx+S/JgCq+uq8k6vNBLC8qmm6ZG8r+6DyCw7gHxrokDiRjuIjUEpGLd7NUP7nWtca5GZTToqkMsjUg4vlv3R+Z09FAkXb3PXLHv+moinxzCZU3JErvGNy7bZDR2jzfgg/wCy8srzgqPan+Ed2/8Ao/2/rpbTkG0gk2WBaw+4ju/cD/58H8+356xmiEsjlUYsN0kkssrMPli5NnT3SQxzSSzJDFGKMsgLBWa6tR4+dRjwoyGbFyYsgxcTmNCEJHvHtb44PjUvg6RVpS1f+Pf9i32aSJwA9XGHc47tHKEJsEMvg/rpt8rGCbdrN7aEe0bKA4s3Vak1ayLvEgUqKkbYbFFnU9282f7ClzjGvaytx2Io/wAdGuS+4jSj/Ayp1jkeJ+lZhO6KRWdJI3/xQyIQ6n8jrVxfWPXYI0MqL6jijglmSHPUf5ZOIHI+GCH/ADHVRjGQqKAcdxRuvnjQHTKTJhxusmJjOrO87BT1ZFBqJXcbFY8AbiB5s9tKzcOP3Kx3jRnKdQdeznOJ6jNNPEzExykSxfeRTwxySbh9pganBHa+x8E6FZSRdgA3SGPcvIIJJ5/prplh+0Y2PMerkJB1hLAwjy8CQi2iafFcrY8lHrkAjmtAkXKh/cOTHuJuLpw5R/8ApPbCx82Omfo2vN+R9MlNOeB3+CubFLHKp+9miBCQA6qemS20Enaaqvy1DKuRJSxjqL92Rx7htsHnzpKDMgyIZHiMe+NjFkxneJopVPtZ43CyA/IKj9e+mFmlfpvGsIbZs3G+Se9jyfjWFOE4S4z0JY2si7ModNDGsa2jEEPVCgPz8aVkz98k8DB1LkKi7aU+zcQT9PGqQrIHnIBSOJNyNuADtYB235v+umFEMro8ysrlldn2WfcaJvVadkBrj9QKHeNkQrYhPv2sKt2fz+WpjjZlG6wVtCFbj28DuNQ8sSDIkRdyKQqXW1jupw1diPnRlaF7O8xG6ZGdRRrvR0WnIso2LzZadSLeVASMKEA4PgX5N6mCGSaRzjRqd5C7SLeBl9xKDteuixYGbaUCmltmvdxzyx402y4+PFIsMkrf+x1Qbrc9yX41Fkt67BQEsrnIiywphCo0yAEAhTyfbzorJB08rpLujjUPAkgJuPsVH9NZjZzNE6lmV5ZFjDqadE5O3t2+daEUIEcEjxOY1D71LMhkCUQa7/npquvuIQ5AWUA4q9cvGqxX1AVUMepu+n9NJLDLLO0CtuCoqBlFe488X3rW19sjhx1jMWD96Cm5kYtbiyWY/FcHWcJsFWMjyl1DllReNtpQH8edWZK+SmPhwrDM00swcOhVwQCp70t6ZZMWYzSRzNIUQF3ADXfYMfnsNZ7PBJTs8idN4pFG5uG4AsEdjpldi2YWAac9WW62vGo3BVr66vqqZP6ExhwM0cz8bpniZFYe5iBwy/TWzgzJsGMjAtFuCDduIQNto/l20g2NiyyMSZIyS8i7K2k1xR7/AJ6Lg4kUGVh5HAWYTQuATXvWgOfqNMwtwkjp8abhkRvRO45J+g5u74J/sNaMLBgB8DWSbjbaeSPngV4rTUEhB5v++tmLo25q1Yj+03pnqM8EXqno8hT1bAV9kY5TMxr3NjyL5PlPrY/esec9L/aX0/PYRZIOBnqxRle1jaQcEA8EH6EA/Q99fQ7DKq1+Lv8AQa8d+037Gxetls7CmXG9VRCpLCocwJ+ETkCww7BufAI4sd+HPw0+jOy4VK2NSCUlTKzNY9rFiwI+h0k8+VJmLgYaxicxiXfOCQ11wi2BQuyfoaHz5PC9T/az9ny8PqGBlHFjYJKuTFIYABxceQAY6+PcR+XfXqMbL9C9eROntE6Df0Jj05oj8xuDdfkSPr8aUMkZI5YRWOdzVodD5+HkJBkCNZXUtHJATslTm98bcjzoqsVSZMeKCFZnLzGFdu9toUki6HA8VoK44heS+oXPDvO7SSkfG5zdaISewFV8akFKqkKyyg5XjRUAjjn6386lnRFBYgAtQY33AJrjjVXlRdgdtpe9nBo0QOaFaysmEj1I5PqCSzYSRKuGoEpxIJDQY5scH3pXueBz2JHh0ILJai9oTKXCnJaf+/Ab1AyDKx2zRm/9LRDvHp5CyrNt4MpJBq/N9v50xswvmNjY8jZWC6Fqmk+0SY60eJJtiqbPjmr7kg6Dh5Kt6i+P6U00vpMcW2WWbd0+sFNvjhhagngJZ8njxrsyxgkLYsXtAA/M/wDP9urK1jj+nJev9bXz/krjy81aOSHHjDiKGJN/4giqm786Gs3PysP07GfLzHaKJDtCe1pZJasRRAGiT/Lua03mZ+HgYwysnfTHbjwoPv8AIlqxFGp8+WJ4A5Pw3zP1TPyvWMwT5H3m49HFxsa9h5oQ4/mh++/cn+WVJqPQ2Vz3JhB6h6ln+tJ6rEOlNkTRY0GPDZMiKFjEbccqAPex8jxXt91ldcywLDHGrWsbm63gm94H8tZP7O+kyYchnmi6mdMpiBjU7MdCpuKE/h+bP+vu9EzQxJjrIA0igo7sdxRb3bbrXkPqPkwzZUo9L38lqFvsszzCKOTqokqJJualCmg2z5P+mtFz+GRXV3ibaUfhbUkbj5rSiSXlRyJeza1RAFVL9916JDkExZjzGYIxMcyxxgMCOV+orz86zr2RRQ/BiwNFl4zYwUSqrkxbdglYWzX58XpRlnB2jDxX2AJvLsS1cX7eNEjSZ1jSOYrDDtaRVamayPx34+ml55JY5GXHWQx8G0RiC3mjq32yRLoqHmcuqAhGUuXb3UB9PrqiRZmR1o7MOO5iDvAfdPE3NG+R2o1poPhROI42QdPEbmZyDe4kVpWDMzeqqOkJjic/eBtpO7ghjpeNxi9AoNHi+mw5iq8M8jxK20hwGUn7wM4bigO2qpkOJf8AybWG+KMKbck2SWviq7arLJcsqOQLJKsDuZb/AAg3/LUyHMSHK+zdAPLD03JC72WMcgE9r+dMkuW/ZKZiz5E+6Rg3XB34yLtZwi3RelrnyP8Al3+xSKw2P1I2YurxhiFYcANu86fw0gggkLqxkVvc7sBsFb6QDjRcNcx55E3JFjoQsdqQHZhd2eOL76etLRdxvbF0j2GENLORGNjPKq10wRx7eCPjR3a5BtZBDRoMORu4BFacaNFlKyKQFQdRgABs5HHjQxNjDrxtEgChKk3gn6UPpWlTlsFA0jWFFsgK0lht+9w93fPg6mSJ5ShTMVJIU3KByu4HcCV+dAbLVy22NnZuboAp3Br+ug9nEqdQmOGkdr22wI5rydVhJ3sl70esnAKJIKsAfwP+mqA7CCeB9dRjSdbEw3IG54Ii24XtO0X31bpqyVdlTRB5P6edegtNJo34dbHYZ6Uc2WIA/PTRPARR7mO2z9fJ0hFEVZW7UKAPz9dOxMK3/HtT5Py36/002DFzS7RfaoUp33BhXgg8GweK14z1v9jsPIY5PozR4Gah6nTXcmJK3ewqco31UV8jyPasQoJPc/i+nwNKnliTxd8acpOL0KUVJbPnGN+0fqPps7+m+vYzs8BAYkAZMansylbVlPcEfwOvS48uJmRCfDnjngPcoRuT6Oo5H10r+2PpA9W9MlmhT/v/AE9XyMVl/G0ajdLDfeiLIHyP83PyzB9Xz8CVZoJ5IpRX3kZ9rD4kQ8H/AJzruxZ7Wzhy4Kej6HkwOJvUGzYpHWZR0MyPc64yq+7/AMYZRRHBF/UXo/pcknVnjhllnwI1qKaaMxEvwaRSxNd75PjtdaS9J/bD07N2w+pBcTIelGRHziyk8e8dwf8AnOvSmNqQrTI4+7dCGRh39pXjTYQXLkmZf/HcZ3YuzqGVCygt+Fb5P6aWzc7G9OiSaYNJJKzJi48ZAmyZFG4hS3AVe7seFH8DPqeZj+mpE0sRly5t64OIpCTZDAEs25vwxqOZHPAA18+9S9QyMqdi7/asrLCRfdKypOgNrBjIfcuMp/VyLPHZk8nE6EgfqnqWX6lk9WU9aSf7mKPHDBXS6EGKvcRX+I92N/PHpvQvRcfEibKzFSXPlAjax93joP8A1QgcUBVn9Bx+IXo/ocuJWZOcefKyIHtw/uhaqEUK1XHmv6d9nH+0Rqd0Sy7l3bo3BoqLoi/Hxry3n+a5/t4+vf5LDiCZFllRkXC3BHWJacPQKlvoe+hSqqyY8OMd/wBqIiM6IW+8IDNx4rVMbN2yiLaSJULqlGpVAsg38HTcORA6yzQM4XbMxZDtEcntUD3eeTdaxdN20W9FocY4vR37RKN8cjK+8UPfSg8aV68GIyB4C5P/AHDM9jrsxJsKOfjTTfZ41WRA1cyPKW42p39p4o8jS2ZFAWx5IwZIonBkjYkui+AP7c6Cu7KtjcediTY0s32Zm3OAV2su9xRC2PHfQJI8rKdpTJKtnbtBCqteFA8aUx0leXpQdZUydxiQSADljyW7UNOvGyPJGmQWEbbCzIASwAs0edGbfoOgLQsJpTItxIAm6QC3oXYFeNXWGOJsl4wSDDvp9tD2gsa+R40qPUEDpFTSvkLbIxoihZ5/po8rzTmOSOIKH+7dXJUJGVPuN/z0tNKtACRqktZCwgWwVZHqnegaVb76s32ZJN8hkJVtzolIDY5F1VHUK2AsipHIixxbJGatwZwP3a/TnQeo82UImYbCCFQEksGUsCPrqnJ3YxbDCSGQgRmJVS5FAQu+0CyrX51WTOe44l2lGdWZ1N+PaG1WCOWLIQKyxxKx6u9fddAD9e16s8QkLrkuydOWVWEIC7m8bh2vTVP8kaOjlDGaOSSQyzy7IlJB3q3uO36Dxpcx40UYeVl3x2FrvxfHt0dgkEuPIYo2LRUkylT0xt7LRrd9b0K8Z1H2uwTtERjXlQeAGGi3sLd6QOJI3KESq6t1CpkA5A7rY+NcuSepLEYiAjbpBuHuZSTyo7DnjVB00u0bgsQBwPrx+Wok+zqs8ibBKyqtgmyF/dI/XS1KmVdM9F6axfFisglQ62vbhjX9taFKrFl/F2Y3wR41keiODj5FFdolXaFv22ikjnWpfb+vxrfwS5Y4s3MD5QTDq27i+PPzX0rTSEWCaAHYeBpND24rRkK8X28j5+muqIZoYX3Gz2H4QfP1Ol5TZJ/PV3lIr/E3AHwNBY2DX8dOQjoXYlSD8EHnsaPY6+J+vemn071j1TGRT0EyGeGvEMoEqD9Aa/TX21h9NeE/az02WX1KHJjjYq+HEjlRfujZl9wH0rUUuLJI8LDi9UHY21iOeLU/mNa3p3q/r/op6QHWw2I3Y04MmO4H+A3YPxzpmL06SwQv1+h/I62cT052oMAR+8sqghh8G+P5avHNKAuWKM+9Hns717F9QiyMbA9AjxM2eRBlzLkZGRJPEpsQFpiX2k0SAwBoXYHDvp3pZwnSedoZ82UB5m3hljQ8dJa+PNf077uZi4GGkRXEgieZTGTGoUh1IIZSOObo6ypcYoWlikk6Z9o3BRYBHJI45Os7zPMlNvGtIz8sOEnEf+0ylysK0jv7gDYAPBVQee2mseSPrNIiusMCmkU0GIXYxexdedZKSQru52qGsMb3bq5IPxoL5TxFQxLxAjbVg7b4NjnWWlekJuj0qZeEsSNMemq40mHG6KWaKIMXAj88nveqjOTKDBmIjj6dzTkKo2gigoFWdYceXBL1IJOqTMxkPazQ7Fq1pQphR4aQyIoZ2eQs6tvJIBAA7cVX66q18jE7RTJ9SNoPe2MEVY1WRjbBixritVh9UaFnPTDRyvIxVi1r7aC38fpoKznKedFiUhgiljQYVXbxoUsSwSQGWMlFVeA3cjuSRfNHQ4WUHIc+S8dyVQEtQI5X6ADn666T1iXe4dRvBIbdwb+uk/tCbQjQ73BamG1dobgAedbUEOEIYftMMWTMyIWkkZg4FABCRwaFC9V4pdk/oJGmC6jNWNfdccIC2VHay3x+momUhY40LzJuKyMx2XY/c1cs3V2RlY4EU+xFBO4gUo03IcQ3JsCqAgcbqO8fvAa43JPZdLQji4ywmMrFQkUD7xuEY88k/wA9HkfFWQfdKx5IaJvcGbuFritMr0ZklCmNuCedtrQtt1mtZ8iQxuixFUjCFSNylQvcsQf5aKXIiZdckiUwhLllXcC49vf97USskaJK8iDIZxJTURtHY971OPBCZIxPIDEockd3DN2YEfz0s0cW8PvstviG+tqlDw3IOmKPEje7GHyYSJH6SEEtfTUKqFuQQtaC8kWQ0dEgLW9dopwvc/8ADpGT7RBH1JQGJ3bgD3A4Xd/pqyNKDjyrNtBQrJG+0BivJFeRq632BMiad3m94aNnYoACCopbBNfPzqgRnUI+xCyxyiyVYg/X+uqxbJMv7tyyK4Zx0yVevcFX4vkaLkbZJuoJHh6ZDEMAFIA/DpqjGNMHZq+gvIpzo2dSpMUkQQ2AtFGFHnjjW6rC+f568fiZawZGJMJd0bTPFKBxsRxVk+R5/TXrVPbnm9aXjSuFP0bHhzuHH4G1IIFdz2rVg23mrPgaqhFD51I79/HOuxHSyx7Hfyzd/wDKNUXk/T5OrkA1Zof1/PUE1Zr4oD+WnJnPIqws2PjSE8SysCfDED+A1oEV9TVnQAopb8lq/O9RhQh/0+G7CAE8mhwfz0VMONTYUA+daSJajjt2OrGP51ULRj5uAmVjyIFUyKC0JI7PXbjwex/214xZBIyxRrSBleRXNBaNEP8Al319IZa+hGvGepYiY3qeYwfYuSnUj7bVEpJbv8ENWuLyYLUzg8rH1MyzBiZGQzK3scrGtSrEkagb3Yl+PBrQeri7kTa7IiNGrNzvO47X48akS4fTmEit93J1mQimO3jYAP3T51EcscyzlIUVCWCsxKrEg5O3zfxrg2zgY1A0SCWFMdGOQEqS+Yue6n+uoij9QypGWB4JAjEF5HINKeSormxquNjGdWMQK+xlNksTQB4VfJ/to0MBhGyZ0SRJI7g3OS5VhtIK0ObN6Gl2SmKSl1kZwRuRSspjNxkXXN+NS46iBS56s20ARDcTQ/GO/wCWjvGXy8qARH3zHqAC+nCrUxIB7Dzoz5U0KR42PGkiQl03BVR2jJBPTlHII8DRjsgpHjSiSRppW2AOrxFd0pavaOaFacillhjiWWPc5RXJbelBuQAtaPDHjRD7QrK0c6SdZ8uJZXR0U7hEqm+OLJ0LqstdKGN0Kqw6xmLrYHt4OpON9hVIdiZihcRksxJQUUZCeBuvXAzlij0Y3LB9jgpurvY05jYkdZH2wyOohWSKq43ixTtxWohOGsrId9Iz+1QrKwAqrPH66zWuPY38Cj0pCqdm2t3xVfI5512w0ZHEY9pIU9yDxpyNS88rCTGKxw+4SWrIbqnPbWY8kBycSNgpR5gpvdQBNWCO/wA6kXsDhqyw3LHCZJXrsC9htu7v7R48aq8DreyUGVffEyldrD/MD5OplyJYXp9u1GdNoUlWU2ON2hmZf+3fps6BW2n8AXdyt1pqtg0hcCXYJKjZwzdQykhlbcCGXxrmWPqrNLEGZQ7OXLBbLBgy1pmSRWyANsY/7dUEQJ9nFc/rz+ulpZJoSFld2jbaouqCA0Y2J06K1ZRlhkxRvK8cIV5FFFwQLJ/ePfVFh9RZDPHi9aFsmpWRd67mX8KeeRZPGhGONWyGCyEzMv2c9W40VedjK3J8VqyTeopHAgnzI4Zt2+OF6R6ugtHi/OmxSiGKT/kVZIFXZ05REzuA1UI3U+3cL89r16r0vJOTiRMSDIn3b1zyvAP8NeSaTLwxAZtztOjMVkUkqhPtBY+daf7PTt9olAoxyo4agaEsZDA/kQTrpxNqR1eJPjkr5PYITx2rvovbxx9NCj8c8aIxrjwTzrRRsPZ3LHnx4/11b22PgD+eqirBv6dv76k/PxpiFNFHYXV186H1FBSu4IIrVnUtXB1UqFI73WoSh2PvyAARf66ueQR/ytBjYbPrWp383qMt2Q3bXlf2lj9+FkhFZljnxwD59yuP7/x16d2sa8/6+JHhxFjAJOQ4IPajEx5/UDXPn3BivIj+2zzStilnkaMrJ+EymwdgrcCL/ob0w0MPRWRXiMMzBDJZ3FCpBpW91jVEm66PE8KSSBpJHvaNrLwAwbwKrXZByIAu+5HjIYRLe1QwG4jaLocd9ZUm30Y9EYhx4Gi6auYy3SyFXcrsV9wemJNH6aOqj7fBJJDuSNhIA/KzMnuAJ76R6sr9KbrR1DLJA5UqHFDd7R3I0wuVjuIluVciU7nyOfYEUgLs7EeTqlOwN/BGRkZKJNIiRscySbe2wKV3tuCFz4vg6FNFJHcIUpsCO5fna5CsNpPbTeQFZunFRxsmKPJjCncJCa3M7P2N3eiLjTskpMWRKrS+yRV3xhI1Fksntrx3/pq11pkSb6FgOsiBHmCQyrLyQwlDDezWOaHOizfYMiWSWOWVLIDIXFIwABA+nxpubFIMJjVECs4LsdrEhOARyvP0B0dMWgahxeTbF13biQOQVXtqjnoPHRebInyYVaV7Lou7aAL2kEDjQ5JGiTcte5FLBhYJY8kjXa7XD2mQzZcmaOSYoVFx0faKILEc62YDsjlAAp44mNgcEmvb8a7XabRZ9CmVBGcLJlO4yI6hST2HatLP7ZxiD/wvHFYPLd6/F312u01dCjHyfuzQ53SyRktRNK1A33vTcarP9ljk5R45CVBoWOAddrtO9IjL5MCxSCIPIVSMAEsN3AscgDtosahHYcsOpHLT+730OeddrtR9gQRZJHzI1LUJMuCNwADas1VRB/LRfSIl+0Rz7nDyTzMwBpPxPHQUcVrtdrrj6H4v5R/s9jCo9vfvohRbPfv867Xa7om8+jioXkX30UKNt/PfXa7TkKYJkXvzehMAXGu12oQuOBXi9TX5+ddrtBlogm1i+rDfHEhJAdpgSDRH3fjXa7Scv8WUzf8AUzzcUQWVpQ7lp3y1lBI2tsKkWK0DrztHHPvIkGXKNyn5Xk67XayH2Yj7D+pRxqsG1Qu1wKXgH3nk/XUY4EpxWcAs7TkmhYKqe399drtCPQGEymaNMqmJ6eUY0ujtSQe4DxzqGj+yEvjyTRlVAIWRgrigPeo4P8NdrtT0FaJw8mdcnp7t0SmRxG/KBjBusD8wK1venyM8DOatpGJqwLoeNdrtH2D0f//Z;" vertex="1" parent="1">
          <mxGeometry x="756.6600000000001" y="260" width="86.67" height="66.1" as="geometry" />
        </mxCell>
        <mxCell id="oFOPfkIDdDdgaN84WTpM-28" value="arduino board" style="text;html=1;align=center;verticalAlign=middle;resizable=0;points=[];autosize=1;strokeColor=none;fillColor=none;" vertex="1" parent="1">
          <mxGeometry x="200" y="178" width="100" height="30" as="geometry" />
        </mxCell>
        <mxCell id="oFOPfkIDdDdgaN84WTpM-29" value="driver and motor" style="text;html=1;align=center;verticalAlign=middle;resizable=0;points=[];autosize=1;strokeColor=none;fillColor=none;" vertex="1" parent="1">
          <mxGeometry x="530" y="140" width="110" height="30" as="geometry" />
        </mxCell>
        <mxCell id="oFOPfkIDdDdgaN84WTpM-31" value="receiver receives alert and&amp;nbsp;&lt;div&gt;notification on phone&lt;/div&gt;" style="text;html=1;align=center;verticalAlign=middle;resizable=0;points=[];autosize=1;strokeColor=none;fillColor=none;" vertex="1" parent="1">
          <mxGeometry x="695" y="233" width="170" height="40" as="geometry" />
        </mxCell>
        <mxCell id="oFOPfkIDdDdgaN84WTpM-32" value="AIR POLLUTION MONITORING METER (SMART AIR)" style="text;html=1;align=center;verticalAlign=middle;resizable=0;points=[];autosize=1;strokeColor=none;fillColor=none;" vertex="1" parent="1">
          <mxGeometry x="140" y="-2" width="320" height="30" as="geometry" />
        </mxCell>
      </root>
    </mxGraphModel>
  </diagram>
</mxfile>
